<?xml version="1.0" encoding="iso-8859-1"?>
<!-- Generator: Adobe Illustrator 19.0.0, SVG Export Plug-In . SVG Version: 6.00 Build 0)  -->
<svg version="1.1" id="Layer_1" xmlns="http://www.w3.org/2000/svg" xmlns:xlink="http://www.w3.org/1999/xlink" x="0px" y="0px"
	 viewBox="0 0 512 512" style="enable-background:new 0 0 512 512;" xml:space="preserve">
<g>
	<g>
		<path d="M405.768,50.824V0h-31.347v50.824h-36.005V0h-31.347v50.824h-36.005V0h-31.347v50.824h-36.006V0h-31.347v50.824h-36.005V0
			h-31.347v50.824H37.366V434.03c0,42.998,34.973,77.97,77.97,77.97h281.328c42.997,0,77.97-34.973,77.97-77.97V50.824H405.768z
			 M331.734,299.468c-1.609,26.843-18.338,43.321-36.906,60.583c-12.737,11.849-25.652,23.552-38.828,34.92
			c-8.108-7.44-16.217-14.879-24.325-22.309c-14.138-12.978-28.244-25.861-40.469-42.182c-11.212-14.984-14.273-35.224-7.44-53.112
			c12.267-32.12,59.037-30.793,72.286,0.575c0,0,17.189-33.98,52.642-20.177C326.123,264.558,332.8,281.809,331.734,299.468z
			 M443.288,157.78H68.713V82.171h36.3v27.195h31.347V82.171h36.005v27.195h31.347V82.171h36.006v27.195h31.347V82.171h36.005
			v27.195h31.347V82.171h36.005v27.195h31.347V82.171h37.519V157.78z"/>
	</g>
</g>
<g>
</g>
<g>
</g>
<g>
</g>
<g>
</g>
<g>
</g>
<g>
</g>
<g>
</g>
<g>
</g>
<g>
</g>
<g>
</g>
<g>
</g>
<g>
</g>
<g>
</g>
<g>
</g>
<g>
</g>
</svg>
