<?xml version="1.0" encoding="iso-8859-1"?>
<!-- Generator: Adobe Illustrator 18.0.0, SVG Export Plug-In . SVG Version: 6.00 Build 0)  -->
<!DOCTYPE svg PUBLIC "-//W3C//DTD SVG 1.1//EN" "http://www.w3.org/Graphics/SVG/1.1/DTD/svg11.dtd">
<svg version="1.1" id="Capa_1" xmlns="http://www.w3.org/2000/svg" xmlns:xlink="http://www.w3.org/1999/xlink" x="0px" y="0px"
	 viewBox="0 0 496.876 496.876" style="enable-background:new 0 0 496.876 496.876;" xml:space="preserve">
<path id="flute-glass-2" style="fill:#000100;" d="M265.126,447.236V306.378c0.046-0.032,0.064-0.101,0.11-0.133
	c0.247-0.192,0.508-0.357,0.751-0.49c22.912-12.482,60.199-42.923,60.199-109.098c0-60.246-8.018-135.043-21.055-196.657H191.63
	c-12.986,61.417-20.959,136.055-20.959,196.657c0,65.804,36.49,96.176,59.449,108.792c0.261,0.146,0.521,0.307,0.765,0.472
	c0.376,0.261,0.554,0.65,0.864,0.98v140.336c-40.037,4.107-70.281,21.919-70.281,30.995c0,10.303,38.93,18.645,86.969,18.645
	c48.023,0,86.973-8.343,86.973-18.645C335.409,469.155,305.165,451.343,265.126,447.236z"/>
<g>
</g>
<g>
</g>
<g>
</g>
<g>
</g>
<g>
</g>
<g>
</g>
<g>
</g>
<g>
</g>
<g>
</g>
<g>
</g>
<g>
</g>
<g>
</g>
<g>
</g>
<g>
</g>
<g>
</g>
</svg>
