<?xml version="1.0" encoding="iso-8859-1"?>
<!-- Generator: Adobe Illustrator 19.0.0, SVG Export Plug-In . SVG Version: 6.00 Build 0)  -->
<svg version="1.1" id="Layer_1" xmlns="http://www.w3.org/2000/svg" xmlns:xlink="http://www.w3.org/1999/xlink" x="0px" y="0px"
	 viewBox="0 0 511.999 511.999" style="enable-background:new 0 0 511.999 511.999;" xml:space="preserve">
<g>
	<g>
		<circle cx="258.573" cy="67.86" r="41.1"/>
	</g>
</g>
<g>
	<g>
		<path d="M364.095,254.994c-40.932-77.318-37.707-186.051-37.67-187.14c0.003-0.09,0.005-0.183,0.005-0.272
			c-0.074-18.126-7.202-35.138-20.069-47.903C293.558,6.982,276.6,0,258.58,0c-0.094,0-0.19,0-0.283,0.001
			c-9.827,0.039-19.301,2.135-28.16,6.227c-3.537,1.634-5.079,5.826-3.445,9.364c1.633,3.537,5.823,5.081,9.363,3.445
			c7.008-3.238,14.51-4.896,22.298-4.927c0.075-0.001,0.149-0.001,0.225-0.001c14.272,0,27.704,5.531,37.843,15.589
			c10.162,10.08,15.804,23.503,15.896,37.812c-0.208,6.353-3.043,114.094,39.306,194.086c1.826,3.451,6.099,4.754,9.537,2.934
			C364.605,262.708,365.918,258.438,364.095,254.994z"/>
	</g>
</g>
<g>
	<g>
		<path d="M408.664,449.313c-31.106-76.122-83.718-203.089-103.534-240.218l-0.003-0.909l6.391-21.253
			c2.045-6.801-0.63-14.096-6.516-17.981l-0.094-29.486c-0.032-10.157-8.31-18.369-18.47-18.316l-46.238,0.237
			c-10.135,0.052-18.314,8.3-18.282,18.435l0.013,4.031c-14.026,1.497-25.601,11.315-29.673,24.409l17.169,22.969l-2.238-5.841
			c-0.772-2.11-1.215-4.379-1.215-6.757c0-10.878,8.819-19.696,19.696-19.696c2.762,0,5.389,0.573,7.775,1.601l8.943-12.042
			l-25.997,64.411l-61.877,12.73c-9.872,2.031-16.242,11.68-14.208,21.569c2.014,9.791,11.659,16.248,21.568,14.208
			c0,0,72.894-15.026,72.895-15.026c5.862-1.205,10.924-5.277,13.256-11.053l27.355-70.529l-0.205,1.495l-2.194,16.021
			c5.514,0,12.517,0,23.196,0l-6.648,22.108h-11.227c5.134,4.24,9.05,9.789,11.328,16.021h3.387
			c21.86,42.743,79.269,182.188,100.817,234.925c3.994,9.775-3.213,20.451-13.728,20.451c-38.362,0-117.903,0-166.498,0
			c0.001,12.959,0.096,14.368-0.281,17.559c1.981,10.31,11.037,18.102,21.926,18.104c11.424,0.002,20.83-8.577,22.166-19.641h15.36
			c-0.353,5.001-1.681,9.807-3.894,14.2c3.914,3.382,9.004,5.441,14.583,5.442c0.001,0,0.001,0,0.002,0
			c11.422,0,20.827-8.579,22.164-19.641h74.474C402.029,491.845,416.951,469.595,408.664,449.313z"/>
	</g>
</g>
<g>
	<g>
		<path d="M197.676,271.928c-12.312,2.54-4.416,0.913-32.268,6.654c-19.315,3.976-38.288-8.459-42.276-27.847
			c-3.315-16.112,4.731-31.479,17.902-38.646l-8.331-60.823l21.895,56.451l38.841-7.991l-26.408-65.43l21.181,28.519l0.12-37.544
			c0.034-10.546-8.477-19.127-19.022-19.182l-48.113-0.246c-10.568-0.055-19.185,8.487-19.219,19.059
			c-1.056,329.781-0.993-94.888-0.941,363.854c0.001,12.839,10.41,23.247,23.25,23.244c5.814-0.001,11.116-2.15,15.192-5.678
			c-2.667-5.286-4.179-11.25-4.18-17.565l-0.023-205.726l15.906,0.082l0.023,205.642c0.001,12.839,10.409,23.245,23.247,23.245
			h0.003c12.84-0.001,23.247-10.411,23.245-23.251L197.676,271.928z"/>
	</g>
</g>
<g>
	<g>
		<circle cx="169.399" cy="50.393" r="42.773"/>
	</g>
</g>
<g>
	<g>
		<path d="M267.88,219.563l-2.485,18.147c-0.66,4.826-3.961,10.386-7.169,14.122c7.59-1.463,13.482-7.319,15.028-14.828
			C274.586,230.529,272.46,224.028,267.88,219.563z"/>
	</g>
</g>
<g>
</g>
<g>
</g>
<g>
</g>
<g>
</g>
<g>
</g>
<g>
</g>
<g>
</g>
<g>
</g>
<g>
</g>
<g>
</g>
<g>
</g>
<g>
</g>
<g>
</g>
<g>
</g>
<g>
</g>
</svg>
