<?xml version="1.0" encoding="iso-8859-1"?>
<!-- Generator: Adobe Illustrator 19.0.0, SVG Export Plug-In . SVG Version: 6.00 Build 0)  -->
<svg version="1.1" id="Layer_1" xmlns="http://www.w3.org/2000/svg" xmlns:xlink="http://www.w3.org/1999/xlink" x="0px" y="0px"
	 viewBox="0 0 512 512" style="enable-background:new 0 0 512 512;" xml:space="preserve">
<g>
	<g>
		<path d="M259.636,184.503c-38.149,0-69.183,31.033-69.183,69.183s31.033,69.183,69.183,69.183s69.183-31.033,69.183-69.183
			C328.819,215.537,297.785,184.503,259.636,184.503z"/>
	</g>
</g>
<g>
	<g>
		<path d="M259.636,97.965c-85.859,0-155.721,69.851-155.721,155.721s69.862,155.721,155.721,155.721
			c85.87,0,155.721-69.851,155.721-155.721S345.506,97.965,259.636,97.965z M259.636,354.216c-55.432,0-100.53-45.098-100.53-100.53
			s45.098-100.53,100.53-100.53s100.53,45.098,100.53,100.53S315.068,354.216,259.636,354.216z"/>
	</g>
</g>
<g>
	<g>
		<path d="M480.653,67.716v77.433c0,6.447-3.193,12.15-8.07,15.651V67.716h-31.347v93.083c-4.875-3.5-8.069-9.203-8.069-15.649
			V67.716h-31.347v77.433c0,24.06,16.879,44.24,39.416,49.353v229.501h-12.186v31.347h51.722v-31.347h-8.19V194.502
			C495.12,189.39,512,169.211,512,145.15V67.716H480.653z"/>
	</g>
</g>
<g>
	<g>
		<path d="M101.982,80.954C90.979,65.51,75.233,56.65,58.755,56.65S26.52,65.51,15.527,80.954C5.517,95.008,0,113.429,0,132.823
			s5.517,37.815,15.527,51.869c7.428,10.437,17.03,17.856,27.552,21.576v217.714h-8.691v31.347h49.227v-31.347h-9.189V206.27
			c0,0,0.002-0.001,0.003-0.001c10.522-3.72,20.125-11.149,27.554-21.577c10.01-14.054,15.527-32.475,15.527-51.869
			C117.509,113.429,111.992,95.008,101.982,80.954z"/>
	</g>
</g>
<g>
</g>
<g>
</g>
<g>
</g>
<g>
</g>
<g>
</g>
<g>
</g>
<g>
</g>
<g>
</g>
<g>
</g>
<g>
</g>
<g>
</g>
<g>
</g>
<g>
</g>
<g>
</g>
<g>
</g>
</svg>
