<?xml version="1.0" encoding="iso-8859-1"?>
<!-- Generator: Adobe Illustrator 19.0.0, SVG Export Plug-In . SVG Version: 6.00 Build 0)  -->
<svg version="1.1" id="Layer_1" xmlns="http://www.w3.org/2000/svg" xmlns:xlink="http://www.w3.org/1999/xlink" x="0px" y="0px"
	 viewBox="0 0 512 512" style="enable-background:new 0 0 512 512;" xml:space="preserve">
<g>
	<g>
		<path d="M102.911,264.243H15.735l-15.559,0.01l-0.115,15.559v0.146c-0.01,0.219-0.01,0.439-0.01,0.658
			c0,37.199,16.384,70.635,42.319,93.466c5.58-2.142,10.783-4.598,15.611-7.346c4.963-2.821,9.529-5.966,13.699-9.425
			c14.618-12.079,24.367-28.014,29.121-47.668c1.17-4.817,1.954-9.54,2.445-14.054c0.637-5.643,0.826-10.951,0.773-15.674
			C103.946,273.313,103.392,267.859,102.911,264.243z"/>
	</g>
</g>
<g>
	<g>
		<path d="M511.938,279.959l-0.104-15.715H409.851c-0.522,3.636-1.108,9.08-1.191,15.673c-0.063,4.713,0.125,10.01,0.784,15.674
			c2.247,19.508,9.937,43.217,31.441,61.325c4.012,3.385,8.516,6.572,13.552,9.509c4.671,2.717,9.812,5.214,15.454,7.429
			c25.788-22.831,42.057-56.163,42.057-93.237C511.949,280.397,511.949,280.178,511.938,279.959z"/>
	</g>
</g>
<g>
	<g>
		<path d="M403.05,404.207c12.728-1.598,24.858-5.129,36.09-10.291c-5.747-3.271-10.961-6.802-15.684-10.522
			c-4.995-3.918-9.446-8.056-13.417-12.33h-0.01c-16.175-17.408-24.398-37.115-28.505-54.042c-1.797-7.44-2.894-14.67-3.49-21.431
			c-0.491-5.59-0.658-10.867-0.616-15.674c0.052-6.311,0.47-11.828,0.951-16.227v-56.498c0-31.859-25.924-57.773-57.773-57.773
			c-31.859,0-57.783,25.914-57.783,57.773v18.735h-13.625v-18.735c0-31.859-25.924-57.773-57.783-57.773
			c-31.849,0-57.773,25.914-57.773,57.773v50.521c0.742,4.775,1.661,12.56,1.745,22.204c0.042,4.807-0.115,10.083-0.617,15.674
			c-0.596,6.771-1.693,14.002-3.49,21.431c-4.106,16.98-12.372,36.749-28.651,54.199c-4.002,4.284-8.485,8.443-13.521,12.372
			c-4.765,3.73-10.021,7.262-15.809,10.522c11.117,5.046,23.101,8.504,35.66,10.093v76.446H96.532V512h96.479v-31.347h-13.235
			v-88.358c41.095-20.376,69.411-62.778,69.411-111.678v-23.343h13.625v23.343c0,48.9,28.316,91.301,69.411,111.678v88.358h-13.236
			V512h96.479v-31.347H403.05V404.207z M148.429,480.653h-8.134v-76.445h0.002c2.738-0.345,5.454-0.784,8.129-1.317
			c0.001,0,0.001,0,0.002,0V480.653z M195.803,223.492c-4.974,0-9.007-4.044-9.007-9.018s4.033-9.007,9.007-9.007
			c4.984,0,9.018,4.033,9.018,9.007S200.787,223.492,195.803,223.492z M316.197,223.492c-4.984,0-9.018-4.044-9.018-9.018
			s4.033-9.007,9.018-9.007c4.974,0,9.007,4.033,9.007,9.007S321.171,223.492,316.197,223.492z M363.571,480.653v-77.762
			c0.001,0,0.001,0,0.002,0c2.675,0.533,5.392,0.972,8.129,1.317c0.001,0,0.002,0,0.002,0l0.001,76.445H363.571z"/>
	</g>
</g>
<g>
	<g>
		<path d="M299.844,3.906c-10.282-4.002-20.344-4.545-29.895-1.609c-5.193,1.609-9.624,4.075-13.302,6.823
			c-7.868-5.966-17.732-9.31-28.244-9.112c-17.931,0.313-32.967,10.689-39.226,27.084c-6.771,17.732-3.908,38.181,7.471,53.384
			c3.26,4.357,6.844,8.631,10.961,13.051c6.552,7.043,13.396,13.312,19.999,19.372l28.118,25.799l10.564-9.101
			c8.746-7.555,18.077-15.945,28.515-25.652c13.396-12.455,30.072-27.962,31.661-54.345c0.073-1.191,0.104-2.382,0.104-3.542
			C326.573,26.371,316.552,10.405,299.844,3.906z"/>
	</g>
</g>
<g>
</g>
<g>
</g>
<g>
</g>
<g>
</g>
<g>
</g>
<g>
</g>
<g>
</g>
<g>
</g>
<g>
</g>
<g>
</g>
<g>
</g>
<g>
</g>
<g>
</g>
<g>
</g>
<g>
</g>
</svg>
