<?xml version="1.0" encoding="iso-8859-1"?>
<!-- Generator: Adobe Illustrator 19.0.0, SVG Export Plug-In . SVG Version: 6.00 Build 0)  -->
<svg version="1.1" id="Layer_1" xmlns="http://www.w3.org/2000/svg" xmlns:xlink="http://www.w3.org/1999/xlink" x="0px" y="0px"
	 viewBox="0 0 512 512" style="enable-background:new 0 0 512 512;" xml:space="preserve">
<g>
	<g>
		<path d="M256,253.91c-14.211,0-25.778,11.567-25.778,25.778c0,14.211,11.567,25.767,25.778,25.767
			c14.211,0,25.778-11.557,25.778-25.767C281.778,265.477,270.211,253.91,256,253.91z"/>
	</g>
</g>
<g>
	<g>
		<path d="M256,195.051c-46.665,0-84.637,37.961-84.637,84.637c0,46.665,37.972,84.637,84.637,84.637s84.637-37.972,84.637-84.637
			C340.637,233.012,302.665,195.051,256,195.051z M256,336.802c-31.493,0-57.125-25.621-57.125-57.114
			c0-31.504,25.631-57.125,57.125-57.125s57.125,25.621,57.125,57.125C313.125,311.181,287.493,336.802,256,336.802z"/>
	</g>
</g>
<g>
	<g>
		<path d="M469.682,116.684h-10.274v-15.329H428.06v15.329H145.941v-14.629c0-16.332-13.281-29.612-29.612-29.612H72.443
			c-16.321,0-29.602,13.281-29.602,29.612v14.629h-0.522C18.986,116.684,0,135.659,0,159.002v35.004h15.673h15.673h146.568
			c20.616-18.819,48.044-30.302,78.085-30.302s57.469,11.483,78.085,30.302h146.568h15.673H512v-35.004
			C512,135.659,493.014,116.684,469.682,116.684z M114.594,116.684H74.188V103.79h40.406V116.684z"/>
	</g>
</g>
<g>
	<g>
		<path d="M496.327,225.353h-15.673H358.442c8.641,16.217,13.542,34.712,13.542,54.335c0,63.948-52.025,115.984-115.984,115.984
			s-115.984-52.036-115.984-115.984c0-19.623,4.901-38.118,13.542-54.335H31.347H15.673H0v214.204h512V225.353H496.327z
			 M427.708,391.492H406.81v-20.898h20.898V391.492z M464.635,391.492h-20.898v-20.898h20.898V391.492z"/>
	</g>
</g>
<g>
</g>
<g>
</g>
<g>
</g>
<g>
</g>
<g>
</g>
<g>
</g>
<g>
</g>
<g>
</g>
<g>
</g>
<g>
</g>
<g>
</g>
<g>
</g>
<g>
</g>
<g>
</g>
<g>
</g>
</svg>
