<?xml version="1.0" encoding="iso-8859-1"?>
<!-- Generator: Adobe Illustrator 19.0.0, SVG Export Plug-In . SVG Version: 6.00 Build 0)  -->
<svg version="1.1" id="Layer_1" xmlns="http://www.w3.org/2000/svg" xmlns:xlink="http://www.w3.org/1999/xlink" x="0px" y="0px"
	 viewBox="0 0 512.001 512.001" style="enable-background:new 0 0 512.001 512.001;" xml:space="preserve">
<g>
	<g>
		<path d="M419.889,334.355v-31.902c-3.534,0.774-6.776,1.046-9.578,1.046c-2.102,0-4.141-0.146-6.106-0.408
			c-5.908-0.774-11.198-2.614-15.684-4.768c-8.02-3.837-13.457-8.71-15.245-10.425c-0.721-0.596-4.674-3.733-10.121-5.144
			c-6.985-1.809-13.687,0.063-20.494,5.709c-29.695,24.614-59.171,10.655-70.976-0.439c-0.795-0.648-5.354-4.266-11.24-5.897
			c-7.006-1.934-12.725-0.251-18.549,5.458c-11.23,11.01-23.443,15.12-34.871,15.13c-14.984,0-28.608-7.079-36.91-14.942
			l-0.659-0.659c-2.049-2.07-8.532-7.183-15.182-7.183h-0.031c-4.517,0.01-9.013,2.415-13.75,7.33
			c-5.751,5.981-11.544,9.944-17.012,12.516c-5.719,2.708-11.083,3.9-15.684,4.277c-1.265,0.115-2.468,0.157-3.607,0.157h-0.523
			c-4.12-0.052-7.988-0.669-11.554-1.642v31.787c-27.688,3.231-49.227,26.82-49.227,55.355v14.565
			c1.391,0.732,2.97,1.412,4.705,1.903c2.719,0.774,6.43,1.328,10.979-0.512c2.468-0.983,5.176-2.677,8.103-5.416
			c2.499-2.332,5.029-4.36,7.581-6.096c24.865-16.949,51.57-6.776,64.943,5.709c1.025,0.774,5.155,3.712,10.508,5.071
			c6.859,1.746,12.777,0.157,18.612-4.988c27.249-24.049,58.586-10.791,71.352-0.418l0.376,0.314
			c2.729,2.175,15.235,10.749,30.584-0.711c29.235-21.822,58.92-9.18,70.526,0.554l0.439,0.376
			c0.638,0.523,4.914,3.963,10.623,5.489c6.838,1.83,12.861,0.105,18.967-5.448c24.781-22.564,51.8-14.304,66.564-4.35
			c1.966,1.317,3.722,2.666,5.218,3.984c0.669,0.533,4.893,3.691,10.467,5.165c0.052,0.01,0.105,0.031,0.157,0.042
			c5.699,1.453,10.697,0.554,15.527-2.834v-12.401C469.116,361.175,447.577,337.586,419.889,334.355z"/>
	</g>
</g>
<g>
	<g>
		<path d="M372.659,202.2v-53.42c0-32.79-26.674-59.474-59.464-59.474h-41.511V45.264c1.996-1.9,4.142-4.022,6.434-6.411
			c13.451-14.011,12.05-34.187-1.962-38.11C262.605-3.051,256.393,8.881,256,9.668c-0.393-0.787-6.604-12.72-20.156-8.925
			c-14.011,3.923-15.413,24.1-1.962,38.111c2.292,2.387,4.438,4.511,6.434,6.41v44.041h-41.511
			c-32.79,0-59.464,26.684-59.464,59.474v53.42c-26.945,5.657-47.23,29.601-47.23,58.199v7.664
			c2.938,2.206,7.466,4.768,12.077,4.778c0.01,0,0.01,0,0.021,0c1.192,0,2.384-0.167,3.586-0.523
			c3.283-0.941,6.619-3.189,10.09-6.807c1.861-1.934,3.733-3.66,5.594-5.186c11.742-9.682,23.181-11.836,31.159-11.753
			c19.668,0.157,33.773,13.102,37.119,16.489c0.92,0.774,5.061,4.12,10.404,5.636c6.525,1.851,12.004,0.146,17.775-5.51
			c14.21-13.928,32.142-18.486,50.472-12.819c12.694,3.921,21.362,11.523,22.303,12.38l0.366,0.335
			c3.419,3.053,14.994,11.303,29.559-0.774c25.617-21.226,51.549-13.698,65.873-4.172c2.374,1.568,4.423,3.2,6.106,4.768
			l0.429,0.408c0.544,0.512,4.203,3.796,9.16,5.625c0.429,0.157,0.868,0.303,1.317,0.439c3.639,1.098,8.407,1.621,14.367-2.74
			v-8.239C419.889,231.801,399.604,207.857,372.659,202.2z M199.056,171.26h-20.912v-20.912h20.912V171.26z M232.756,171.26h-20.912
			v-20.912h20.912V171.26z M266.456,171.26h-20.912v-20.912h20.912V171.26z M300.156,171.26h-20.912v-20.912h20.912V171.26z
			 M333.856,171.26h-20.912v-20.912h20.912V171.26z"/>
	</g>
</g>
<g>
	<g>
		<path d="M469.117,480.631v-44.717c-3.503,0.774-6.953,1.119-10.32,1.119c-1.819,0-3.607-0.105-5.364-0.293
			c-5.657-0.596-10.958-2.102-15.684-4.047c-6.253-2.583-11.47-5.96-15.12-9.065l-0.251-0.22c-0.701-0.575-5.071-4.005-10.864-5.542
			c-6.995-1.861-13.102-0.136-19.218,5.437c-28.064,25.523-58.638,11.617-71.332,0.387c-2.97-2.279-16.113-10.968-31.577,0.575
			c-11.878,8.867-23.725,12.056-34.369,12.056c-15.402,0-28.284-6.661-35.143-12.453c-0.795-0.586-5.395-3.869-11.418-5.364
			c-7.33-1.819-13.488-0.24-19.375,4.956c-27.437,24.216-58.031,10.697-70.37,0.167l-0.68-0.606
			c-0.596-0.523-4.862-4.172-10.582-5.782c-4.297-1.213-10.979-1.913-19.344,5.918c-4.538,4.245-9.191,7.455-13.854,9.797
			c-5.259,2.656-10.529,4.193-15.684,4.852c-2.049,0.261-4.078,0.387-6.075,0.387c-3.294,0-6.504-0.335-9.609-0.941v43.379H15.161
			v31.368H496.84v-31.369H469.117z"/>
	</g>
</g>
<g>
</g>
<g>
</g>
<g>
</g>
<g>
</g>
<g>
</g>
<g>
</g>
<g>
</g>
<g>
</g>
<g>
</g>
<g>
</g>
<g>
</g>
<g>
</g>
<g>
</g>
<g>
</g>
<g>
</g>
</svg>
