<?xml version="1.0" encoding="iso-8859-1"?>
<!-- Generator: Adobe Illustrator 19.0.0, SVG Export Plug-In . SVG Version: 6.00 Build 0)  -->
<svg version="1.1" id="Layer_1" xmlns="http://www.w3.org/2000/svg" xmlns:xlink="http://www.w3.org/1999/xlink" x="0px" y="0px"
	 viewBox="0 0 512.001 512.001" style="enable-background:new 0 0 512.001 512.001;" xml:space="preserve">
<g>
	<g>
		<path d="M395.085,141.164v-0.001V0L50.711,141.104l0.682,1.665v369.232H461.29V141.164H395.085z M206.74,432.781h-33.799v-33.799
			h33.799V432.781z M273.241,432.781h-33.799v-33.799h33.799V432.781z M339.732,432.781h-33.799v-33.799h33.799V432.781z
			 M344.212,264.492c-1.873,31.242-21.343,50.42-42.954,70.511c-14.825,13.791-29.856,27.411-45.191,40.643
			c-9.437-8.659-18.874-17.318-28.311-25.965c-16.455-15.103-32.872-30.098-47.1-49.094c-13.049-17.439-16.612-40.995-8.659-61.815
			c14.278-37.383,68.711-35.839,84.131,0.669c0,0,20.005-39.548,61.268-23.484C337.681,223.861,345.452,243.939,344.212,264.492z
			 M363.76,141.163H133.18l230.58-94.477V141.163z"/>
	</g>
</g>
<g>
</g>
<g>
</g>
<g>
</g>
<g>
</g>
<g>
</g>
<g>
</g>
<g>
</g>
<g>
</g>
<g>
</g>
<g>
</g>
<g>
</g>
<g>
</g>
<g>
</g>
<g>
</g>
<g>
</g>
</svg>
