<?xml version="1.0" encoding="iso-8859-1"?>
<!-- Generator: Adobe Illustrator 18.0.0, SVG Export Plug-In . SVG Version: 6.00 Build 0)  -->
<!DOCTYPE svg PUBLIC "-//W3C//DTD SVG 1.1//EN" "http://www.w3.org/Graphics/SVG/1.1/DTD/svg11.dtd">
<svg version="1.1" id="Capa_1" xmlns="http://www.w3.org/2000/svg" xmlns:xlink="http://www.w3.org/1999/xlink" x="0px" y="0px"
	 viewBox="0 0 465.227 465.227" style="enable-background:new 0 0 465.227 465.227;" xml:space="preserve">
<g>
	<path d="M184.324,102.514l-73.268,0.42c-6.975-0.153-13.649,3.913-16.462,10.751L30.126,270.394
		c-3.652,8.878,0.584,19.036,9.462,22.689c2.164,0.891,4.403,1.312,6.606,1.312c6.836,0,13.32-4.06,16.082-10.774l32.667-79.406
		v238.139c0,12.91,10.695,23.322,23.709,22.859c12.395-0.441,22.039-11.004,22.039-23.407V318.36c0-4.823,3.641-9.035,8.454-9.346
		c5.274-0.341,9.657,3.836,9.657,9.036v124.304c0,12.91,10.695,23.322,23.708,22.859c12.395-0.44,22.041-11.005,22.041-23.408
		V122.741C204.552,111.57,195.496,102.514,184.324,102.514z"/>
	<path d="M283.375,45.208C283.375,20.236,263.141,0,238.168,0c-22.384,0-40.949,16.26-44.562,37.613
		c-4.91-19.656-22.676-34.214-43.856-34.214c-24.974,0-45.209,20.236-45.209,45.208c0,24.971,20.235,45.209,45.209,45.209
		c22.384,0,40.949-16.262,44.561-37.613c4.91,19.656,22.675,34.215,43.857,34.215C263.141,90.418,283.375,70.18,283.375,45.208z"/>
	<path d="M435.601,350.543c-3.238-11.554-15.233-18.296-26.787-15.054l-52.495,14.72l-1.793-10.052l18.349-5.475
		c17.143-5.115,24.342-25.439,14.244-40.205l-60.043-87.807l-6.289-21.077l54.009,66.751c3.435,4.246,8.457,6.449,13.523,6.449
		c3.84,0,7.705-1.266,10.923-3.87c7.463-6.039,8.618-16.984,2.579-24.447L295.236,98.746c-4.65-5.749-12.21-7.737-18.851-5.594
		c-1.351,0.117-41.855,12.051-41.855,12.051c-9.238,2.756-15.557,11.271-15.516,20.913l0.926,218.249
		c-0.355,17.885,16.805,30.939,33.947,25.823l5.43-1.62v73.669c0,12,9.728,21.728,21.728,21.728s21.729-9.728,21.729-21.728v-86.636
		l9.839-2.936l5.127,28.746c1.076,6.033,4.649,11.332,9.841,14.589c3.494,2.193,7.503,3.324,11.551,3.324
		c1.964,0,3.938-0.266,5.865-0.807l75.548-21.185C432.101,374.091,438.841,362.098,435.601,350.543z"/>
</g>
<g>
</g>
<g>
</g>
<g>
</g>
<g>
</g>
<g>
</g>
<g>
</g>
<g>
</g>
<g>
</g>
<g>
</g>
<g>
</g>
<g>
</g>
<g>
</g>
<g>
</g>
<g>
</g>
<g>
</g>
</svg>
