<?xml version="1.0" encoding="iso-8859-1"?>
<!-- Generator: Adobe Illustrator 19.0.0, SVG Export Plug-In . SVG Version: 6.00 Build 0)  -->
<svg version="1.1" id="Layer_1" xmlns="http://www.w3.org/2000/svg" xmlns:xlink="http://www.w3.org/1999/xlink" x="0px" y="0px"
	 viewBox="0 0 511.999 511.999" style="enable-background:new 0 0 511.999 511.999;" xml:space="preserve">
<g>
	<g>
		<path d="M427.881,101.17c-12.433-24.657-32.601-42.977-58.322-52.988c-56.454-21.984-97.844-3.695-122.615,15.523
			c-10.115,7.85-18.258,16.441-24.469,24.103c-23.352-32.517-61.913-52.048-104.212-51.307
			C69.012,37.357,27.82,65.636,10.773,110.293c-20.158,52.758-11.629,113.638,22.235,158.88
			c33.592,44.866,72.55,80.609,110.224,115.172l77.551,71.141l10.554-9.092c10.585-9.134,21.285-18.498,32.308-28.269
			c-3.507-3.549-6.984-7.172-10.428-10.867c-0.136-0.146-0.283-0.303-0.418-0.449c-3.643-3.925-7.119-7.807-10.46-11.66
			c-5.961-6.911-11.483-13.748-16.661-20.669c-13.424-17.924-22.204-39.24-25.408-61.631c-3.236-22.642-0.679-45.795,7.412-66.966
			c7.725-20.241,21.264-36.902,39.146-48.186c16.243-10.241,35.367-15.658,55.305-15.658c20.178,0,39.804,5.512,56.767,15.94
			c4.844,2.975,9.405,6.316,13.644,9.99c9.719-8.184,21.953-15.805,36.891-20.408h0.01c5.282-1.628,10.7-2.808,16.191-3.518
			c4.259-0.553,8.57-0.835,12.902-0.835c0.96,0,1.931,0.01,2.902,0.042c0.219-2.182,0.386-4.374,0.511-6.566
			C443.633,148.865,438.758,122.757,427.881,101.17z"/>
	</g>
</g>
<g>
	<g>
		<path d="M468.988,220.643c-11.117-4.322-21.264-6.117-30.45-6.117c-0.919,0-1.816,0.021-2.714,0.052
			c-2.641,0.104-5.188,0.355-7.662,0.731c-0.825,0.125-1.649,0.271-2.453,0.428c-2.432,0.47-4.771,1.054-7.036,1.754
			c-31.87,9.813-47.476,40.639-47.476,40.639c-12.485-29.573-41.014-44.772-69.064-44.772c-11.055,0-22.036,2.359-31.933,7.14
			c-0.762,0.365-1.524,0.741-2.265,1.138c-1.503,0.793-2.965,1.639-4.405,2.547c-1.075,0.679-2.14,1.388-3.173,2.14
			c-6.242,4.468-11.806,10.094-16.337,16.911c-0.501,0.762-0.992,1.534-1.472,2.317c-0.48,0.783-0.94,1.587-1.399,2.401
			c-0.449,0.814-0.887,1.649-1.305,2.495c-0.637,1.263-1.242,2.568-1.816,3.894c-0.376,0.898-0.741,1.795-1.096,2.714
			c-12.694,33.237-7.015,70.838,13.811,98.658c8.08,10.783,16.598,20.753,25.398,30.21c3.57,3.841,7.192,7.599,10.856,11.295
			c12.683,12.788,25.794,24.803,38.927,36.849c15.063,13.821,30.127,27.632,45.18,41.453c24.479-21.107,48.468-42.852,72.143-64.867
			c6.462-6.013,12.809-11.973,18.874-18.018c1.013-1.013,2.015-2.025,3.006-3.038c1.117-1.138,2.223-2.276,3.32-3.424
			c2.745-2.871,5.407-5.773,7.975-8.716c0.522-0.595,1.023-1.18,1.535-1.775c1.691-1.973,3.34-3.967,4.938-5.992
			c0.532-0.668,1.065-1.347,1.587-2.026c2.516-3.257,4.896-6.586,7.13-9.99c0.752-1.138,1.482-2.286,2.192-3.434
			c0.365-0.585,0.71-1.159,1.065-1.743c0.689-1.169,1.367-2.338,2.036-3.528c0.668-1.19,1.305-2.391,1.931-3.591
			c0.626-1.211,1.232-2.432,1.816-3.664c0.887-1.858,1.722-3.737,2.505-5.637c1.315-3.184,2.505-6.441,3.549-9.792
			c0.418-1.347,0.814-2.693,1.19-4.071c0.741-2.735,1.399-5.543,1.952-8.414c0.271-1.43,0.522-2.881,0.752-4.353
			c0.564-3.674,0.971-7.453,1.2-11.347C513.772,265.311,501.37,233.253,468.988,220.643z"/>
	</g>
</g>
<g>
</g>
<g>
</g>
<g>
</g>
<g>
</g>
<g>
</g>
<g>
</g>
<g>
</g>
<g>
</g>
<g>
</g>
<g>
</g>
<g>
</g>
<g>
</g>
<g>
</g>
<g>
</g>
<g>
</g>
</svg>
