<?xml version="1.0" encoding="iso-8859-1"?>
<!-- Generator: Adobe Illustrator 19.0.0, SVG Export Plug-In . SVG Version: 6.00 Build 0)  -->
<svg version="1.1" id="Layer_1" xmlns="http://www.w3.org/2000/svg" xmlns:xlink="http://www.w3.org/1999/xlink" x="0px" y="0px"
	 viewBox="0 0 512 512" style="enable-background:new 0 0 512 512;" xml:space="preserve">
<g>
	<g>
		<path d="M449.948,78.713h-58.965c0.94-1.839,1.766-3.741,2.497-5.705c5.026-13.553,4.483-28.265-1.557-41.41
			c-6.029-13.145-16.813-23.155-30.376-28.192c-13.563-5.026-28.265-4.472-41.41,1.557C303.711,12.496,274.234,46.466,256,68.828
			c-18.234-22.361-47.711-56.332-64.137-63.866c-13.145-6.029-27.847-6.583-41.41-1.557c-13.563,5.037-24.347,15.047-30.386,28.192
			c-6.029,13.145-6.573,27.858-1.547,41.41c0.731,1.964,1.557,3.866,2.497,5.705H62.052c-22.257,0-40.365,18.109-40.365,40.365
			v90.448h183.206V78.713h-15.507c-14.326-0.648-25.423-1.891-29.603-3.814c-5.538-2.539-9.76-7.085-11.87-12.79
			c-2.121-5.716-1.891-11.902,0.648-17.44c2.539-5.538,7.085-9.749,12.79-11.87c2.591-0.961,5.266-1.432,7.952-1.432
			c3.229,0,6.458,0.7,9.488,2.09c7.126,3.26,25.757,22.936,44.461,45.057c0.052,0.063,0.115,0.125,0.167,0.199h12.821v15.11
			l-0.439,0.564h0.439v115.14h39.519V94.386h0.439l-0.439-0.564v-15.11h12.79l0.199-0.199
			c18.704-22.131,37.335-41.797,44.461-45.057c5.528-2.539,11.724-2.779,17.44-0.658c5.705,2.121,10.251,6.332,12.79,11.87
			c2.539,5.538,2.769,11.724,0.648,17.44c-1.055,2.853-2.633,5.413-4.65,7.586c-2.017,2.163-4.451,3.929-7.22,5.204
			c-4.201,1.923-15.329,3.166-29.697,3.814h-15.402v1.348h-0.01v129.466h183.206v-90.448
			C490.313,96.821,472.204,78.713,449.948,78.713z"/>
	</g>
</g>
<g>
	<g>
		<polygon points="236.24,240.644 236.24,480.652 236.24,496.326 236.24,512 275.759,512 275.759,496.326 275.759,480.652 
			275.759,240.644 		"/>
	</g>
</g>
<g>
	<g>
		<polygon points="77.736,240.644 62.062,240.644 46.389,240.644 46.389,512 204.893,512 204.893,496.326 204.893,480.652 
			204.893,240.644 		"/>
	</g>
</g>
<g>
	<g>
		<polygon points="449.937,240.644 434.263,240.644 307.107,240.644 307.107,480.652 307.107,496.326 307.107,512 465.611,512 
			465.611,240.644 		"/>
	</g>
</g>
<g>
</g>
<g>
</g>
<g>
</g>
<g>
</g>
<g>
</g>
<g>
</g>
<g>
</g>
<g>
</g>
<g>
</g>
<g>
</g>
<g>
</g>
<g>
</g>
<g>
</g>
<g>
</g>
<g>
</g>
</svg>
