<?xml version="1.0" encoding="iso-8859-1"?>
<!-- Generator: Adobe Illustrator 19.0.0, SVG Export Plug-In . SVG Version: 6.00 Build 0)  -->
<svg version="1.1" id="Layer_1" xmlns="http://www.w3.org/2000/svg" xmlns:xlink="http://www.w3.org/1999/xlink" x="0px" y="0px"
	 viewBox="0 0 512 512" style="enable-background:new 0 0 512 512;" xml:space="preserve">
<g>
	<g>
		<path d="M486.128,263.617c-4.294-55.223-28.045-106.559-67.814-145.878c-38.337-37.919-87.676-60.823-140.736-65.714
			c5.506-5.516,8.91-13.129,8.91-21.537C286.488,13.651,272.839,0,256,0s-30.488,13.651-30.488,30.488
			c0,8.408,3.404,16.021,8.91,21.537c-53.06,4.89-102.399,27.794-140.736,65.714c-39.769,39.319-63.519,90.655-67.814,145.878H0
			v31.347h24.984h27.261v21.932l71.471,35.621l176.744,27.387l0.606,0.084c0.063,0,6.154,0.867,11.964,4.096
			c8.652,4.827,9.759,11.045,9.759,15.935v7.074h-18.62V512h177.445V407.092h-23.939V325.11l-30.616-30.145h59.956H512v-31.347
			H486.128z M164.164,111.094l12.863,28.588c-54.972,24.733-67.835,78.033-67.96,78.566l-30.542-7.053
			C79.172,208.394,95.169,142.137,164.164,111.094z M357.554,471.406h-20.898v-20.898h20.898V471.406z M426.329,407.092h-72.192
			v-7.074c0-35.746-31.953-49.037-49.152-51.137l-171.656-26.593l-49.737-24.785v-2.539H382.38l43.948,43.269V407.092z"/>
	</g>
</g>
<g>
</g>
<g>
</g>
<g>
</g>
<g>
</g>
<g>
</g>
<g>
</g>
<g>
</g>
<g>
</g>
<g>
</g>
<g>
</g>
<g>
</g>
<g>
</g>
<g>
</g>
<g>
</g>
<g>
</g>
</svg>
