<?xml version="1.0" encoding="iso-8859-1"?>
<!-- Generator: Adobe Illustrator 19.0.0, SVG Export Plug-In . SVG Version: 6.00 Build 0)  -->
<svg version="1.1" id="Layer_1" xmlns="http://www.w3.org/2000/svg" xmlns:xlink="http://www.w3.org/1999/xlink" x="0px" y="0px"
	 viewBox="0 0 511.999 511.999" style="enable-background:new 0 0 511.999 511.999;" xml:space="preserve">
<g>
	<g>
		<path d="M456.197,459.761l-32.995,7.386L391.91,327.349c0.002-0.001,0.003-0.001,0.005-0.002
			c13.982-5.846,26.384-15.174,35.848-27.137c12.549-15.853,19.451-35.66,19.451-55.78c0-6.599-0.732-13.229-2.186-19.712
			L412.767,80.616L256,115.711L99.234,80.616L66.973,224.718c-1.454,6.484-2.186,13.114-2.186,19.712
			c0,20.12,6.902,39.926,19.451,55.78c9.464,11.953,21.866,21.291,35.848,27.137c0.002,0.001,0.003,0.001,0.005,0.002
			L88.799,467.147l-32.995-7.386l-6.853,30.614l96.604,21.624l6.853-30.614l-32.995-7.386l31.286-139.772c0.002,0,0.003,0,0.005,0
			c1.401,0.073,2.803,0.105,4.204,0.105c16.857,0,33.411-4.769,47.999-14.013c20.287-12.873,34.342-32.867,39.592-56.302
			l13.5-60.329l13.5,60.318c5.25,23.445,19.304,43.44,39.592,56.313c14.588,9.244,31.132,14.013,47.999,14.013
			c1.401,0,2.803-0.031,4.204-0.105c0.002,0,0.003,0,0.005,0l31.286,139.772l-32.995,7.386l6.853,30.614l96.604-21.624
			L456.197,459.761z M133.231,264.916l-16.094-3.608l3.597-16.094l16.104,3.597L133.231,264.916z M108.238,225.503l3.608-16.094
			l16.094,3.597l-3.597,16.104L108.238,225.503z M156.541,236.316l-16.104-3.597l3.608-16.104l16.104,3.608L156.541,236.316z
			 M229.062,180.442l-120.804,3.493l14.734-65.86l114.299,25.589L229.062,180.442z M282.938,180.431l-8.23-36.768l114.299-25.589
			l14.734,65.84L282.938,180.431z M403.763,225.503l-16.104,3.608l-3.597-16.104l16.094-3.597L403.763,225.503z M355.461,236.316
			l-3.608-16.094l16.104-3.608l3.608,16.104L355.461,236.316z M375.162,248.812l16.104-3.597l3.597,16.094l-16.094,3.608
			L375.162,248.812z"/>
	</g>
</g>
<g>
	<g>
		<rect x="240.153" width="31.372" height="65.076"/>
	</g>
</g>
<g>
	<g>
		<rect x="178.011" y="10.109" transform="matrix(0.862 -0.5068 0.5068 0.862 5.1073 104.0539)" width="31.37" height="65.073"/>
	</g>
</g>
<g>
	<g>
		<rect x="285.835" y="26.952" transform="matrix(0.5068 -0.862 0.862 0.5068 120.2566 295.4791)" width="65.073" height="31.37"/>
	</g>
</g>
<g>
</g>
<g>
</g>
<g>
</g>
<g>
</g>
<g>
</g>
<g>
</g>
<g>
</g>
<g>
</g>
<g>
</g>
<g>
</g>
<g>
</g>
<g>
</g>
<g>
</g>
<g>
</g>
<g>
</g>
</svg>
