<?xml version="1.0" standalone="no"?>
<!DOCTYPE svg PUBLIC "-//W3C//DTD SVG 1.1//EN" "http://www.w3.org/Graphics/SVG/1.1/DTD/svg11.dtd" >
<svg>
<metadata>
Created by FontForge 20120731 at Sat Nov  5 03:05:17 2016
 By www
(c)2008 Floodfonts, designed by Felix Braden
</metadata>
<defs>
<font id="Bigfish" horiz-adv-x="551" >
  <font-face 
    font-family="Bigfish"
    font-weight="400"
    font-stretch="normal"
    units-per-em="1000"
    panose-1="0 0 4 0 0 0 0 0 0 0"
    ascent="800"
    descent="-200"
    x-height="539"
    cap-height="646"
    bbox="-93 -220 1730 901"
    underline-thickness="20"
    underline-position="-123"
    unicode-range="U+0020-F002"
  />
<missing-glyph horiz-adv-x="500" 
d="M63 0v800h375v-800h-375zM125 63h250v675h-250v-675z" />
    <glyph glyph-name=".notdef" horiz-adv-x="500" 
d="M63 0v800h375v-800h-375zM125 63h250v675h-250v-675z" />
    <glyph glyph-name="glyph1" horiz-adv-x="0" 
 />
    <glyph glyph-name="glyph2" horiz-adv-x="160" 
 />
    <glyph glyph-name="space" unicode=" " horiz-adv-x="160" 
 />
    <glyph glyph-name="exclam" unicode="!" horiz-adv-x="314" 
d="M289 656l-48 -450h-212l-9 441zM258 -4l-234 -4l-3 135l227 -2z" />
    <glyph glyph-name="quotedbl" unicode="&#x22;" horiz-adv-x="442" 
d="M422 625l-15 -304l-155 3l-17 300zM206 622l-12 -291l-164 -7l-20 301z" />
    <glyph glyph-name="numbersign" unicode="#" 
d="M699 494l-240 -187l38 -278l-227 135l-245 -131l52 246l-170 220l281 10l129 238l91 -234z" />
    <glyph glyph-name="dollar" unicode="$" horiz-adv-x="710" 
d="M690 568l-14 -244q-197 44 -313 44q-67 0 -67 -24q0 -22 70 -37q148 -32 217 -68q81 -42 81 -103q0 -57 -60 -94t-158 -42q-9 -87 -12 -87t-182 6l-4 89q-132 16 -188 39l-1 111q7 -13 106 -41q123 -34 247 -34q42 0 68 11q23 9 23 24q0 29 -81 44q-219 41 -292 76
q-110 53 -110 164q0 78 74 125q65 42 175 53l-1 84l245 5l-12 -89q123 -5 189 -12z" />
    <glyph glyph-name="percent" unicode="%" horiz-adv-x="855" 
d="M835 161q0 -94 -73 -141q-56 -36 -135 -36q-82 0 -138 34q-77 46 -77 144q0 10 1 19l-119 -181h-151l187 229q-38 -10 -77 -10q-93 0 -157 39q-86 52 -86 163q0 108 92 155q60 31 147 31q88 0 151 -35q88 -48 88 -152v-15l135 214l187 1l-270 -304q39 10 84 10
q78 0 134 -31q77 -42 77 -134zM708 139q0 42 -80 42q-75 0 -75 -43q0 -18 21 -32.5t55 -14.5q35 0 57 13.5t22 34.5zM339 367q0 43 -82 43q-77 0 -77 -43q0 -19 22 -33.5t57 -14.5q36 0 58 13.5t22 34.5z" />
    <glyph glyph-name="ampersand" unicode="&#x26;" horiz-adv-x="825" 
d="M815 23q-93 -32 -156 -32q-64 0 -109 42q-99 -45 -213 -45q-109 0 -184 34q-92 42 -92 120q0 106 83 125q-114 51 -114 165q0 96 84 150q88 58 256 58q213 0 353 -37l-5 -321l87 -1l-10 -89l-84 -1q-6 -26 -6 -47q0 -31 14 -37q8 -3 22 -3q29 0 74 11v-92zM519 375
q-68 13 -125 13q-110 0 -110 -52q0 -65 157 -65q38 0 73 4zM512 124l-4 66h-122q-104 0 -104 -48q0 -52 100 -52q45 0 130 34z" />
    <glyph glyph-name="quotesingle" unicode="'" horiz-adv-x="232" 
d="M212 623l-4 -296l-168 -1l-20 291z" />
    <glyph glyph-name="parenleft" unicode="(" horiz-adv-x="364" 
d="M324 714l-8 -286q-39 3 -67 -18q-68 -51 -68 -213q0 -149 63 -207q26 -24 63 -28l7 -85q-86 6 -147 49q-147 103 -147 372q0 249 115 353q71 64 167 64q13 0 22 -1z" />
    <glyph glyph-name="parenright" unicode=")" horiz-adv-x="364" 
d="M344 298q0 -269 -147 -372q-61 -43 -147 -49l7 85q37 4 63 28q63 58 63 207q0 162 -67 213q-29 21 -68 18l-8 286q9 1 22 1q96 0 167 -64q115 -104 115 -353z" />
    <glyph glyph-name="asterisk" unicode="*" horiz-adv-x="471" 
d="M451 581l-97 -109l26 -150l-135 62l-130 -71l9 151l-104 110l158 13l58 127l71 -127z" />
    <glyph glyph-name="plus" unicode="+" horiz-adv-x="480" 
d="M460 359l-5 -134h-146l-14 -134l-138 -6l4 140h-138l-3 125l144 3l4 147l168 -3l-14 -141z" />
    <glyph glyph-name="comma" unicode="," horiz-adv-x="258" 
d="M238 181l-19 -306l-106 -6l8 131h-101l1 172z" />
    <glyph glyph-name="hyphen" unicode="-" horiz-adv-x="359" 
d="M329 354l-5 -121h-291l-3 112z" />
    <glyph glyph-name="hyphen" unicode="&#x2010;" horiz-adv-x="359" 
d="M329 354l-5 -121h-291l-3 112z" />
    <glyph glyph-name="period" unicode="." horiz-adv-x="276" 
d="M256 173q0 -177 -3 -177t-233 -4l2 184z" />
    <glyph glyph-name="slash" unicode="/" horiz-adv-x="479" 
d="M459 653l-229 -650l-210 -4l190 645z" />
    <glyph glyph-name="zero" unicode="0" horiz-adv-x="689" 
d="M659 314q0 -174 -108 -261q-85 -68 -202 -68q-121 0 -205 63q-114 86 -114 268q0 178 121 254q79 51 194 51t198 -57q116 -79 116 -250zM465 239q0 133 -117 133q-53 0 -81.5 -38.5t-28.5 -96.5q0 -59 30 -103q32 -49 82 -49q52 0 83.5 43.5t31.5 110.5z" />
    <glyph glyph-name="one" unicode="1" horiz-adv-x="450" 
d="M440 1h-388l-2 93l88 -2l-3 266h-110l-5 144q11 -1 23 -1q55 0 92 23q44 28 41 78l198 5l-3 -515l67 -4z" />
    <glyph glyph-name="two" unicode="2" horiz-adv-x="630" 
d="M600 419q0 -96 -64 -145q-43 -32 -164 -67q-117 -34 -117 -95q0 -14 6 -30l144 5l8 63l163 13l-5 -167l-523 4q-7 31 -7 58q0 114 118 177q52 27 160 52q34 8 46 14q25 13 25 37q0 38 -72 38q-44 0 -281 -36l-17 250q135 27 275 27q134 0 214 -45q91 -52 91 -153z" />
    <glyph glyph-name="three" unicode="3" horiz-adv-x="657" 
d="M637 424q0 -125 -110 -166q79 -20 79 -112q0 -74 -72 -115.5t-200 -41.5q-158 0 -285 48l-6 103q40 -17 117 -32q101 -20 183 -16q49 2 49 47q0 41 -49 44q-26 2 -102 1l2 86q29 0 88 6q45 7 45 47q0 46 -109 46q-85 0 -239 -28l-18 250q135 26 306 26q321 0 321 -193z
" />
    <glyph glyph-name="four" unicode="4" horiz-adv-x="698" 
d="M698 153l-118 2l-7 -63l67 -4l2 -87h-396l-2 93l90 -2l1 56l-332 3l-3 89l300 360l321 5l-34 -355l108 1zM350 393l-140 -150l133 1z" />
    <glyph glyph-name="five" unicode="5" horiz-adv-x="691" 
d="M666 596l-22 -240l-406 10l-1 -70q73 7 134 7q278 0 278 -142q0 -82 -71.5 -127t-200.5 -45q-158 0 -330 58l-6 103q33 -14 139 -34q119 -22 188 -22q70 0 70 57q0 30 -20.5 42.5t-76.5 12.5q-67 0 -282 -13l-19 401z" />
    <glyph glyph-name="six" unicode="6" horiz-adv-x="696" 
d="M676 175q0 -73 -69 -124q-82 -61 -231 -61q-168 0 -256.5 78.5t-89.5 223.5q-1 157 97 235q106 83 335 83q82 0 181 -11l-14 -241q-103 18 -182 18q-186 0 -179 -87q112 14 193 14q85 0 144 -30q71 -34 71 -98zM483 132q3 9 3 18q0 54 -111 54q-46 0 -110 -10
q-5 -51 37 -81q36 -25 89 -25q79 0 92 44z" />
    <glyph glyph-name="seven" unicode="7" horiz-adv-x="670" 
d="M660 586l-16 -201q-225 -118 -225 -248q0 -24 8 -47l68 -2l-1 -92l-366 4v90l58 1q1 113 97 201q79 74 186 102l-265 -17l-7 -73l-161 -3l-16 289z" />
    <glyph glyph-name="eight" unicode="8" horiz-adv-x="710" 
d="M690 413q0 -111 -125 -156q97 -39 97 -110q0 -160 -298 -160q-172 0 -247 45q-65 39 -65 116q0 87 94 109q-126 56 -126 167q0 191 337 191q185 0 265 -56q68 -48 68 -146zM475 326q0 60 -114 60q-124 0 -124 -59q0 -28 39 -45q34 -14 81 -14q118 0 118 58zM468 133
q0 50 -109 50q-113 0 -113 -48q0 -56 115 -56q63 0 87 13q20 12 20 41z" />
    <glyph glyph-name="nine" unicode="9" horiz-adv-x="706" 
d="M676 305q0 -162 -108 -246q-93 -73 -241 -73q-166 0 -243 44l-4 88q105 -43 237 -43q138 0 153 99q-63 -19 -150 -19q-123 0 -202 43q-98 55 -98 167q0 135 124 200q92 49 220 49q118 0 204 -68q108 -84 108 -241zM481 270q-13 107 -121 107q-49 0 -79 -22
q-26 -20 -26 -47q0 -24 21 -38q31 -21 84 -21q56 0 121 21z" />
    <glyph glyph-name="colon" unicode=":" horiz-adv-x="287" 
d="M256 516l-2 -176l-234 3q0 179 3 179t233 -6zM267 189q-2 -100 -6 -201q-3 0 -224 12l-4 184z" />
    <glyph glyph-name="semicolon" unicode=";" horiz-adv-x="274" 
d="M254 501q-1 -91 -6 -183q-2 0 -224 12l-4 166zM244 181l-16 -306l-90 -1l-11 126h-98l-2 172z" />
    <glyph glyph-name="less" unicode="&#x3c;" horiz-adv-x="561" 
d="M571 -46l-336 -8l1 218l-151 -113l-35 556l185 -131l-11 216l347 -6v-732zM256 287l-109 90l12 -162z" />
    <glyph glyph-name="equal" unicode="=" horiz-adv-x="480" 
d="M460 455l-5 -134h-432l-3 125zM460 250l-5 -129l-432 7l-3 125z" />
    <glyph glyph-name="greater" unicode="&#x3e;" horiz-adv-x="462" 
d="M472 -46h-482v732h482v-732z" />
    <glyph glyph-name="question" unicode="?" horiz-adv-x="583" 
d="M563 448q0 -53 -58 -91l-108 -60q-58 -40 -58 -98q0 -15 3 -31l-221 1q-4 17 -4 34q0 57 50 101q45 39 120 60q64 18 64 41q0 29 -76 29q-102 0 -247 -59l-8 226q110 39 250 39q132 0 208 -44q85 -50 85 -148zM357 -4l-234 -4l-3 135l227 -2z" />
    <glyph glyph-name="at" unicode="@" horiz-adv-x="1119" 
d="M1099 344q0 -161 -104 -264t-273 -103q-51 0 -105 10l-8 101q-85 -99 -186 -99q-182 0 -182 249q0 139 49 223.5t136 84.5q83 0 128 -57q33 -41 55 -132v139l216 -13l-26 -395q54 9 93 36q92 63 92 199q0 117 -87 209q-114 118 -328 118q-220 0 -341 -114
q-107 -101 -107 -258q0 -154 117 -277q125 -132 304 -132q151 0 238 16q25 5 99 29l12 -108q-128 -26 -359 -26q-197 0 -344 124q-168 140 -168 373q0 239 152 370q140 121 368 121q231 0 391 -115q168 -121 168 -309zM608 250q-31 38 -90 38q-39 0 -64 -34q-22 -30 -22 -71
q0 -34 16 -56q19 -25 52 -25q78 0 108 148z" />
    <glyph glyph-name="A" unicode="A" horiz-adv-x="885" 
d="M885 -1l-437 -2l-4 96h84l-22 71l-209 2l-37 -69l100 -4l3 -92l-361 -2l-2 103h77l146 269l-122 -2l-15 275l515 -9l212 -540h70zM480 262l-60 156l-87 -156h147z" />
    <glyph glyph-name="B" unicode="B" horiz-adv-x="881" 
d="M851 435q0 -125 -110 -166q79 -20 79 -112q0 -72 -51 -114q-47 -40 -119 -40l-599 2l-9 97l76 3l-6 270h-89l-13 267l589 4q116 1 184 -55t68 -156zM589 337q0 46 -42 46h-209l-2 -100l212 1q41 0 41 53zM606 153q0 21 -15 34t-34 12l-225 -3v-95h227q20 0 33.5 14.5
t13.5 37.5z" />
    <glyph glyph-name="C" unicode="C" horiz-adv-x="877" 
d="M837 641l-30 -364l-278 -3q-12 32 -36 57q-40 41 -99 41q-70 0 -109 -43q-35 -37 -35 -91q0 -59 30 -101q36 -51 102 -51q102 0 147 94l266 5l-11 -185l-119 -1l-11 97q-41 -57 -121 -88q-72 -28 -154 -28q-142 0 -242 72q-127 90 -127 267q0 170 117 260q87 67 188 67
q181 0 235 -101v94z" />
    <glyph glyph-name="D" unicode="D" horiz-adv-x="884" 
d="M864 331q0 -181 -131 -266q-99 -64 -249 -64q-146 0 -414 -3l-8 97l75 -3l-16 278h-88l-8 274l471 2q146 0 238 -56q130 -79 130 -259zM625 243q0 65 -54 100q-44 28 -99 28t-111 -2l-4 -277q33 2 111 2q67 0 110 36q47 40 47 113z" />
    <glyph glyph-name="E" unicode="E" horiz-adv-x="852" 
d="M802 646l-13 -369h-176l-6 94l-257 -3v-90l140 2l-2 -100l-144 -6l2 -84l257 3l8 94l166 9v-193l-743 -5l-2 99h93l-13 271h-83l-9 275z" />
    <glyph glyph-name="F" unicode="F" horiz-adv-x="833" 
d="M823 646l-17 -375l-191 -5l-5 104l-247 -2l-8 -88l170 -2l-2 -95l-168 -7v-84h113l-7 -92h-402l-5 92h80l-8 280l-97 -4l-9 273z" />
    <glyph glyph-name="G" unicode="G" horiz-adv-x="844" 
d="M794 656l-20 -283q-301 15 -372 15q-62 0 -103 -33q-46 -37 -46 -103q0 -71 42.5 -115t105.5 -44q59 0 107 31q44 30 45 60l-139 -4l-1 100l380 17l-14 -308q-144 1 -144 6q0 4 4 136q-83 -135 -273 -135q-159 0 -252.5 90t-93.5 246q0 153 104 240q97 81 254 82z" />
    <glyph glyph-name="H" unicode="H" horiz-adv-x="912" 
d="M887 646l-10 -270l-63 2l-12 -286h67l-3 -87l-366 -3l2 92l77 2l-1 90l-244 -2v-90l69 -4l2 -85l-343 4l-2 88h55l-19 274l-69 2l-7 269l392 4v-266l-82 -2l-7 -101l255 3l-2 96l-69 -2l-3 270z" />
    <glyph glyph-name="I" unicode="I" horiz-adv-x="520" 
d="M500 646l-21 -276h-109l-2 -275l67 -4l9 -90h-382l-2 96l88 -2l-6 277h-107l-15 270z" />
    <glyph glyph-name="J" unicode="J" horiz-adv-x="749" 
d="M729 646l-1 -275l-53 1v-120q2 -264 -281 -264q-187 0 -294 70q-95 62 -95 151q0 75 58 119q49 38 111 38q57 0 115 -41q61 -44 61 -96q0 -46 -43 -82q-17 -15 -61 -39q39 -16 101 -16q49 0 79 34q28 31 25 70l-14 173h-134l-20 276z" />
    <glyph glyph-name="K" unicode="K" horiz-adv-x="912" 
d="M912 2l-418 -5l2 96h74l-103 100l-105 -3l-2 -98h73l-2 -92h-387l-3 92l90 2l-3 283l-100 -2l-8 274h395l-3 -274h-50l3 -87l113 4l94 86l-71 3l3 267l383 7l-16 -272l-93 -7l-122 -93l185 -182h71v-99z" />
    <glyph glyph-name="L" unicode="L" horiz-adv-x="783" 
d="M772 341l-17 -352l-730 7v99l109 5l-5 270l-104 3l-15 265l477 4l-23 -276l-104 -3l5 -252l158 3l50 220z" />
    <glyph glyph-name="M" unicode="M" horiz-adv-x="1057" 
d="M1035 642l-19 -272l-67 3l4 -281l80 1q4 0 4 -20q0 -26 -6 -79l-396 6l2 87l85 4l10 297l-185 -405l-115 -6l-172 414l3 -300l72 -2l7 -91l-295 5l-2 96l71 -2l-2 282l-84 -2l-10 262h397l124 -363l146 363z" />
    <glyph glyph-name="N" unicode="N" horiz-adv-x="957" 
d="M937 642l-14 -276l-74 6l-20 -369l-351 -26l-207 420l11 -307h90v-93l-316 5l-3 93l70 3l-16 273l-68 -3l-19 273l446 -5q30 -92 101 -273q38 -81 125 -254l-7 256l-80 3l-12 271z" />
    <glyph glyph-name="O" unicode="O" horiz-adv-x="864" 
d="M849 330q0 -186 -153 -280q-117 -73 -273 -73t-264 70q-144 93 -144 289q0 190 153 271q100 52 250 52q154 0 269 -61q162 -86 162 -268zM605 248q0 70 -46 107.5t-132 37.5q-78 0 -126 -45q-44 -42 -44 -103q0 -62 49.5 -111t123.5 -49q76 0 125.5 46t49.5 117z" />
    <glyph glyph-name="P" unicode="P" horiz-adv-x="850" 
d="M840 423q0 -157 -87 -219q-59 -42 -171 -42h-240l-1 -70l133 -4v-88l-430 -6l-3 106l73 -2v273h-88l-6 282l534 -4q128 -1 180 -25q106 -48 106 -201zM615 327q0 55 -73 55q-49 0 -202 -3l-2 -121l204 2q27 0 50 19.5t23 47.5z" />
    <glyph glyph-name="Q" unicode="Q" horiz-adv-x="867" 
d="M880 -44l-217 -161l-125 186q-47 -7 -98 -7q-174 0 -280 67q-145 90 -145 292q0 199 150 276q97 50 275 50t283 -62q142 -84 142 -275q0 -171 -118 -261zM612 228q0 79 -62 119q-47 30 -112 30q-67 0 -113 -28q-63 -39 -63 -121q0 -83 64 -121q46 -28 112 -28
q64 0 111 30q63 40 63 119z" />
    <glyph glyph-name="R" unicode="R" horiz-adv-x="888" 
d="M868 -10l-308 5l-112 183h-96l2 -92h84l3 -94l-389 3l-7 96h72l-10 280h-77l-10 270l592 -3q254 -1 254 -240q0 -154 -146 -215l77 -97h71v-96zM642 326q0 23 -17.5 38.5t-41.5 15.5q-30 0 -241 -2l2 -109h234q26 0 45 17.5t19 39.5z" />
    <glyph glyph-name="S" unicode="S" horiz-adv-x="853" 
d="M833 645l-15 -318l-227 3q-23 32 -71 58q-54 29 -107 29q-31 0 -50.5 -11.5t-19.5 -27.5q0 -32 74 -48q221 -46 296 -81q88 -41 88 -111q0 -68 -89 -112q-84 -42 -204 -42q-94 0 -172 23q-88 26 -124 73l3 -81h-107l-28 168l223 -5q61 -91 221 -91q91 0 91 28
q0 26 -90 44q-190 38 -246 53q-129 35 -192 85q-77 61 -77 156q0 102 92 157q79 47 200 47q105 0 193 -36q73 -29 88 -58l-2 94z" />
    <glyph glyph-name="T" unicode="T" horiz-adv-x="783" 
d="M763 644l-17 -381l-156 -20l10 156l-97 -1l3 -306h106l-2 -92h-441l-8 99l107 -2l10 296l-97 -4l10 -154l-166 3l-5 406h743z" />
    <glyph glyph-name="U" unicode="U" horiz-adv-x="860" 
d="M840 647l-7 -276l-63 1l-20 -180q-10 -84 -39 -123q-49 -66 -166 -67l-257 -4q-181 -3 -196 196l-12 177h-54l-6 271l378 2l-2 -274l-81 -2v-200q0 -66 62 -66h107q41 0 51 26q3 7 4 49l8 191h-76l-2 276z" />
    <glyph glyph-name="V" unicode="V" horiz-adv-x="928" 
d="M918 649l-8 -275l-85 4l-225 -375l-296 -7l-200 380l-88 -4l-6 275l418 -2l5 -267h-74l112 -259l131 263l-82 -2v267z" />
    <glyph glyph-name="W" unicode="W" horiz-adv-x="1113" 
d="M1113 646l-42 -268l-64 -1l-116 -382l-277 4l-41 288l-83 -284l-279 -5l-108 374l-69 -1l-24 274l400 1l-5 -276l-69 3l43 -215l152 490l93 2l135 -490l39 215l-62 -3l5 268z" />
    <glyph glyph-name="X" unicode="X" horiz-adv-x="945" 
d="M925 644l-7 -275l-67 4l-228 -153l212 -123l68 2l-2 -100l-426 -2l-2 91l56 5l-95 70l-99 -73l56 2l-6 -91l-324 -4l2 96l63 -2l206 139l-221 143l-78 -2l-23 274l453 2l6 -272l-64 -2l110 -77l111 73l-69 5v265z" />
    <glyph glyph-name="Y" unicode="Y" horiz-adv-x="952" 
d="M932 647l-21 -276l-89 -2l-235 -187l3 -92l91 2l-3 -91l-432 -4l-8 95l121 -1v78l-245 200l-77 2l-17 274h447l-6 -273l-65 -2l107 -88l124 90l-75 -2l-2 274z" />
    <glyph glyph-name="Z" unicode="Z" horiz-adv-x="823" 
d="M813 642l-20 -251l-413 -287l237 7l23 106l140 11l-15 -226l-724 -3l2 91l403 311l-243 -4l-10 -120l-157 -3l-16 368h793z" />
    <glyph glyph-name="bracketleft" unicode="[" horiz-adv-x="364" 
d="M322 714l-15 -287l-92 3v-451q96 5 99 -2v-88q0 -4 -250 1l-11 824h269z" />
    <glyph glyph-name="backslash" unicode="\" horiz-adv-x="447" 
d="M457 -1l-204 -15l-233 660h247z" />
    <glyph glyph-name="bracketright" unicode="]" horiz-adv-x="364" 
d="M300 -114l-251 7l4 92l88 4l-6 438l-92 -4l-11 277l265 14z" />
    <glyph glyph-name="asciicircum" unicode="^" horiz-adv-x="676" 
d="M558 597l-133 -3l-71 63l-80 -60h-105l138 173l136 3z" />
    <glyph glyph-name="underscore" unicode="_" 
d="M699 494l-240 -187l38 -278l-227 135l-245 -131l52 246l-170 220l281 10l129 238l91 -234z" />
    <glyph glyph-name="grave" unicode="`" horiz-adv-x="701" 
d="M461 610l-123 -13l-178 143l185 30z" />
    <glyph glyph-name="a" unicode="a" horiz-adv-x="645" 
d="M630 88l-1 -88h-262l2 78q-96 -90 -196 -90q-83 0 -123 34.5t-40 112.5q0 136 176 136q61 0 117 -7q33 -4 66 -9q2 18 2 27q0 52 -76 52q-77 0 -266 -50l14 238q148 27 289 27q116 0 183 -53t63 -148l-13 -264zM363 177q-50 7 -85 7q-60 0 -60 -40q0 -19 14 -31t34 -12
q19 0 52 25t45 51z" />
    <glyph glyph-name="b" unicode="b" horiz-adv-x="688" 
d="M663 258q0 -124 -64 -201q-58 -69 -138 -69q-91 0 -170 92l-2 -78l-264 -3l-3 92l70 -4l-10 359l-55 -3l-7 274l278 2l-5 -310q26 75 63 106q41 34 122 34q84 0 134.5 -79.5t50.5 -211.5zM456 204q0 40 -15 72q-19 39 -53 39q-47 0 -98 -25q-7 -25 -7 -48q0 -60 41 -98
q34 -31 68 -31q28 0 46 28t18 63z" />
    <glyph glyph-name="c" unicode="c" horiz-adv-x="672" 
d="M642 537l-21 -282l-218 -9q-20 57 -82 57q-47 0 -72 -36q-20 -30 -20 -73q0 -46 22 -77q24 -35 65 -35q81 0 93 88l197 -2l-5 -193l-108 -2l9 106q-71 -100 -226 -100q-113 0 -181 83q-65 80 -65 202q0 117 40 190q52 96 163 96q80 0 130 -60q37 -44 51 -113l-12 160h240
z" />
    <glyph glyph-name="d" unicode="d" horiz-adv-x="700" 
d="M680 717l-9 -270l-76 4l-7 -363l76 1l-8 -90l-258 2v87q-85 -99 -186 -99q-182 0 -182 249q0 139 49 223.5t136 84.5q83 0 128 -57q33 -41 55 -132l-5 360h287zM397 250q-31 38 -90 38q-39 0 -64 -34q-22 -30 -22 -71q0 -34 16 -56q19 -25 52 -25q78 0 108 148z" />
    <glyph glyph-name="e" unicode="e" horiz-adv-x="676" 
d="M623 158l-387 -1q13 -74 122 -74t259 43l-17 -95q-166 -51 -267 -51q-303 0 -303 256q0 324 302 324q136 0 217 -56q97 -67 97 -203q0 -64 -23 -143zM435 241q3 9 3 19q0 55 -100 55q-106 0 -106 -66q0 -8 2 -15z" />
    <glyph glyph-name="f" unicode="f" horiz-adv-x="439" 
d="M434 714l-21 -139q-16 3 -30 3q-86 0 -77 -80l111 -9l-16 -197l-89 -8l5 -195l79 2v-94l-366 1l-4 90l80 4v183l-83 -3l-8 241l76 -5q-2 24 -2 45q0 90 44 139t121 49q55 0 108 -10q36 -8 72 -17z" />
    <glyph glyph-name="g" unicode="g" horiz-adv-x="691" 
d="M676 538l-4 -271l-61 3l-9 -305q-2 -58 -66.5 -101t-136.5 -43q-84 0 -313 51l-4 95q156 -34 223 -34q104 0 98 77l-6 69q-60 -88 -146 -88q-84 0 -146 61q-75 73 -75 208q0 136 54 213t150 77q117 0 163 -182l4 169zM391 253q-31 31 -82 31q-42 0 -68 -33
q-22 -29 -22 -65q0 -87 71 -87q39 0 70 50t31 104z" />
    <glyph glyph-name="h" unicode="h" horiz-adv-x="721" 
d="M706 -1l-268 1l12 225q4 74 -50 74q-28 0 -59.5 -18.5t-46.5 -40.5v-148l87 4v-97l-361 3l-3 89l78 -3l-11 355l-64 1l-5 270l274 -1l5 -356q50 193 197 193q73 0 120 -61t43 -164l-8 -235h58z" />
    <glyph glyph-name="i" unicode="i" horiz-adv-x="392" 
d="M324 713l-7 -114l-226 -8l-8 127zM382 89l-7 -89l-338 3l-4 86h75l-4 188l-77 -3l-7 257l294 3l-7 -442z" />
    <glyph glyph-name="j" unicode="j" horiz-adv-x="371" 
d="M341 715l-10 -123l-237 -1l-8 121zM329 534l-3 -558q0 -69 -48 -110q-41 -37 -95 -37q-100 0 -183 42l4 81q47 -18 71 -18q21 0 37.5 12.5t16.5 33.5l-9 287h-89l-15 264z" />
    <glyph glyph-name="k" unicode="k" horiz-adv-x="723" 
d="M713 -4l-258 3l-80 184h-74l-4 -95l84 -5v-84h-356l-3 89h77l-10 357h-67l-7 267l285 3l1 -440l94 3l40 53l-64 5l-3 200h313l-5 -228l-80 5l-62 -79l94 -144l85 3v-97z" />
    <glyph glyph-name="l" unicode="l" horiz-adv-x="404" 
d="M384 89l-11 -90h-352l-1 90l90 -1l1 359l-76 -6l-3 276h279l-5 -629z" />
    <glyph glyph-name="m" unicode="m" horiz-adv-x="1011" 
d="M1001 91l-4 -92l-270 1l13 234q1 26 -15 40.5t-40 14.5t-42 -15t-18 -41l-2 -145l52 1v-90l-251 -4l4 244q0 47 -55 47q-25 0 -44 -14.5t-19 -38.5l3 -142l57 -2l2 -92l-339 -2l-2 96l89 -2l-5 177h-85v268l270 4l16 -182q24 97 61 141q42 50 118 50q75 0 105 -58
q19 -38 25 -131q23 93 61 136q44 51 118 51q79 0 110 -64q26 -52 25 -158l-2 -235z" />
    <glyph glyph-name="n" unicode="n" horiz-adv-x="700" 
d="M690 87l-1 -91l-260 2l9 239q2 59 -50 59q-53 0 -83 -40v-166l64 1v-95l-333 7l-3 87l81 -2l-5 182l-81 -1l-8 269h264l20 -183q13 89 56 139q46 55 119 55q70 0 115 -59q41 -52 40 -117l-3 -285z" />
    <glyph glyph-name="o" unicode="o" horiz-adv-x="664" 
d="M634 240q0 -133 -92 -202q-79 -60 -208 -60q-131 0 -210 58q-94 68 -94 204q0 164 62 238q70 85 240 85q175 0 244 -86q58 -73 58 -237zM436 189q0 59 -27 83q-25 21 -82 21q-53 0 -73 -24t-20 -87q0 -58 29 -80q22 -16 75 -16q49 0 73.5 22.5t24.5 80.5z" />
    <glyph glyph-name="p" unicode="p" horiz-adv-x="720" 
d="M690 264q0 -152 -68 -223q-53 -55 -135 -55q-107 0 -168 100l3 -268l-216 -3l6 459l-84 -7l-13 268l310 6l-6 -176q16 76 62 126q52 57 125 57q184 0 184 -284zM484 216q0 35 -21 59.5t-57 24.5q-47 0 -93 -33q-1 -10 -1 -19q0 -50 28 -85q26 -31 56 -31q33 0 60.5 26
t27.5 58z" />
    <glyph glyph-name="q" unicode="q" horiz-adv-x="716" 
d="M691 542l-4 -273l-64 -2l-9 -448l-214 -2l13 271q-43 -50 -77 -73q-48 -30 -107 -30q-199 0 -199 278q0 112 49 192q58 95 160 95q93 0 142 -92q21 -39 31 -93l-2 176zM410 256q-29 33 -90 33q-29 0 -55 -24q-29 -28 -29 -70q0 -91 69 -91q35 0 72 57q35 54 33 95z" />
    <glyph glyph-name="r" unicode="r" horiz-adv-x="603" 
d="M583 531l-7 -258q-80 32 -146 32q-118 0 -121 -115l-2 -101q0 -8 93 -2l-5 -88h-374l3 95h90l2 190l-96 -5l4 259l258 -1l18 -212q13 64 37 110q59 110 165 110q38 0 81 -14z" />
    <glyph glyph-name="s" unicode="s" horiz-adv-x="680" 
d="M660 549l-20 -264l-234 6q-20 70 -99 70q-48 0 -48 -33q0 -29 43 -41l165 -45q71 -19 101 -43q36 -29 36 -80q0 -59 -56 -94.5t-152 -35.5q-145 0 -199 84v-83l-117 -8l3 158l197 -2q8 -21 37 -36q38 -21 96 -21q66 0 66 24q0 25 -65 35l-202 32q-89 13 -139 61
q-53 50 -53 129q0 86 46 137q50 55 145 55t149 -48q37 -34 49 -83l-3 120z" />
    <glyph glyph-name="t" unicode="t" horiz-adv-x="439" 
d="M419 22q-49 -30 -162 -30q-79 0 -117 55q-26 38 -26 90l-2 131l-87 -1l-5 272l89 -1l1 91l219 -1l-4 -89l87 -1l-11 -270l-85 1l-4 -139q0 -33 41 -33q28 0 66 14v-89z" />
    <glyph glyph-name="u" unicode="u" horiz-adv-x="754" 
d="M734 101l-2 -100h-273v86q-72 -96 -191 -96q-74 0 -117 47q-41 43 -44 112l-5 120l-82 -1l-5 266l290 4l-5 -350q-1 -101 61 -101q33 0 63 42.5t31 86.5l1 57l-77 -1l-8 264h291l-7 -443z" />
    <glyph glyph-name="v" unicode="v" horiz-adv-x="709" 
d="M694 543l-11 -275h-66l-172 -270l-194 2l-163 268l-67 -1l-6 275l339 -1l7 -269l-56 -1l83 -158l93 158h-65l2 268z" />
    <glyph glyph-name="w" unicode="w" horiz-adv-x="980" 
d="M965 533l-21 -262l-77 -3l-103 -265l-202 -3l-55 280l-79 -286l-229 2l-106 275l-66 2l-12 272l335 -3v-271h-50l49 -164l126 434h70l101 -435l56 171l-49 -2l7 254z" />
    <glyph glyph-name="x" unicode="x" horiz-adv-x="751" 
d="M736 546l-27 -268l-72 -5l-142 -106l125 -75l73 3l-5 -92l-334 -1l3 65l80 2l-113 67l-92 -63h66l-1 -75l-252 -4l-3 89h67l134 98l-149 90h-71l-8 268h359v-259l-66 -5l102 -64l90 68l-68 2l9 261z" />
    <glyph glyph-name="y" unicode="y" horiz-adv-x="727" 
d="M712 538l-10 -274h-84l-220 -375l111 -1l9 -88h-362l-3 94l101 -1l66 102h-68l-163 268l-66 1l-8 267l340 6v-270l-57 1l89 -156l95 154h-72l2 274z" />
    <glyph glyph-name="z" unicode="z" horiz-adv-x="666" 
d="M646 534l-5 -237l-359 -200l222 -5l-4 87h114l-9 -182l-518 -1l-12 106l351 206l-272 -1l-4 -74l-113 -6l-17 312z" />
    <glyph glyph-name="braceleft" unicode="{" 
d="M699 494l-240 -187l38 -278l-227 135l-245 -131l52 246l-170 220l281 10l129 238l91 -234z" />
    <glyph glyph-name="bar" unicode="|" horiz-adv-x="356" 
d="M286 714l-9 -714l-199 -7l-8 717z" />
    <glyph glyph-name="braceright" unicode="}" 
d="M699 494l-240 -187l38 -278l-227 135l-245 -131l52 246l-170 220l281 10l129 238l91 -234z" />
    <glyph glyph-name="asciitilde" unicode="~" horiz-adv-x="700" 
d="M605 744q-118 -152 -200 -152q-33 0 -82 29t-68 29q-35 0 -80 -53l-80 15q23 43 49 73q61 74 124 77q35 1 73.5 -18t50.5 -19q29 0 63 45z" />
    <glyph glyph-name="Adieresis" unicode="&#xc4;" horiz-adv-x="885" 
d="M735 837l-8 -135l-257 5l-4 128zM395 832l-8 -135l-267 -9l-10 151zM885 -1l-437 -2l-4 96h84l-22 71l-209 2l-37 -69l100 -4l3 -92l-361 -2l-2 103h77l146 269l-122 -2l-15 275l515 -9l212 -540h70zM480 262l-60 156l-87 -156h147z" />
    <glyph glyph-name="Aring" unicode="&#xc5;" horiz-adv-x="885" 
d="M575 773q0 -53 -44 -80q-39 -24 -102 -24q-149 0 -149 104q0 65 30 95q34 33 118 33q85 0 119 -34q28 -29 28 -94zM481 777q0 32 -56 32q-48 0 -48 -34q0 -30 54 -30q50 0 50 32zM885 -1l-437 -2l-4 96h84l-22 71l-209 2l-37 -69l100 -4l3 -92l-361 -2l-2 103h77l146 269
l-122 -2l-15 275l515 -9l212 -540h70zM480 262l-60 156l-87 -156h147z" />
    <glyph glyph-name="Ccedilla" unicode="&#xc7;" horiz-adv-x="877" 
d="M837 641l-30 -364l-278 -3q-12 32 -36 57q-40 41 -99 41q-70 0 -109 -43q-35 -37 -35 -91q0 -59 30 -101q36 -51 102 -51q102 0 147 94l266 5l-11 -185l-119 -1l-11 97q-68 -95 -226 -113l-60 -162l-189 -4l86 177q-110 28 -176 100q-79 86 -79 225q0 170 117 260
q87 67 188 67q181 0 235 -101v94z" />
    <glyph glyph-name="Eacute" unicode="&#xc9;" horiz-adv-x="852" 
d="M668 800l-206 -123l-146 3l144 150zM802 646l-13 -369h-176l-6 94l-257 -3v-90l140 2l-2 -100l-144 -6l2 -84l257 3l8 94l166 9v-193l-743 -5l-2 99h93l-13 271h-83l-9 275z" />
    <glyph glyph-name="Ntilde" unicode="&#xd1;" horiz-adv-x="957" 
d="M796 848q-127 -183 -215 -183q-35 0 -87.5 34.5t-73.5 34.5q-37 0 -85 -63l-86 18q25 51 52 88q66 89 133 92q37 2 78.5 -21t55.5 -23q30 0 67 54zM937 642l-14 -276l-74 6l-20 -369l-351 -26l-207 420l11 -307h90v-93l-316 5l-3 93l70 3l-16 273l-68 -3l-19 273l446 -5
q30 -92 101 -273q38 -81 125 -254l-7 256l-80 3l-12 271z" />
    <glyph glyph-name="Odieresis" unicode="&#xd6;" horiz-adv-x="864" 
d="M735 837l-8 -135l-257 5l-4 128zM395 832l-8 -135l-267 -9l-10 151zM849 330q0 -186 -153 -280q-117 -73 -273 -73t-264 70q-144 93 -144 289q0 190 153 271q100 52 250 52q154 0 269 -61q162 -86 162 -268zM605 248q0 70 -46 107.5t-132 37.5q-78 0 -126 -45
q-44 -42 -44 -103q0 -62 49.5 -111t123.5 -49q76 0 125.5 46t49.5 117z" />
    <glyph glyph-name="Udieresis" unicode="&#xdc;" horiz-adv-x="860" 
d="M735 837l-8 -135l-257 5l-4 128zM402 697l-268 -9l-9 151l277 -7v-135zM840 647l-7 -276l-63 1l-20 -180q-10 -84 -39 -123q-49 -66 -166 -67l-257 -4q-181 -3 -196 196l-12 177h-54l-6 271l378 2l-2 -274l-81 -2v-200q0 -66 62 -66h107q41 0 51 26q3 7 4 49l8 191h-76
l-2 276z" />
    <glyph glyph-name="aacute" unicode="&#xe1;" horiz-adv-x="665" 
d="M568 730l-206 -123l-123 3l144 150zM650 88l-1 -88h-262l2 78q-96 -90 -196 -90q-83 0 -123 34.5t-40 112.5q0 136 176 136q61 0 117 -7q33 -4 66 -9q2 18 2 27q0 52 -76 52q-77 0 -250 -51l14 238q132 28 273 28q116 0 183 -53t63 -148l-13 -264zM383 177q-50 7 -85 7
q-60 0 -60 -40q0 -19 14 -31t34 -12q19 0 52 25t45 51z" />
    <glyph glyph-name="agrave" unicode="&#xe0;" horiz-adv-x="665" 
d="M451 610l-123 -13l-178 143l185 30zM650 88l-1 -88h-262l2 78q-96 -90 -196 -90q-83 0 -123 34.5t-40 112.5q0 136 176 136q61 0 117 -7q33 -4 66 -9q2 18 2 27q0 52 -76 52q-77 0 -250 -51l14 238q132 28 273 28q116 0 183 -53t63 -148l-13 -264zM383 177q-50 7 -85 7
q-60 0 -60 -40q0 -19 14 -31t34 -12q19 0 52 25t45 51z" />
    <glyph glyph-name="acircumflex" unicode="&#xe2;" horiz-adv-x="665" 
d="M558 597l-133 -3l-71 63l-80 -60h-105l138 173l136 3zM650 88l-1 -88h-262l2 78q-96 -90 -196 -90q-83 0 -123 34.5t-40 112.5q0 136 176 136q61 0 117 -7q33 -4 66 -9q2 18 2 27q0 52 -76 52q-77 0 -250 -51l14 238q132 28 273 28q116 0 183 -53t63 -148l-13 -264z
M383 177q-50 7 -85 7q-60 0 -60 -40q0 -19 14 -31t34 -12q19 0 52 25t45 51z" />
    <glyph glyph-name="adieresis" unicode="&#xe4;" horiz-adv-x="665" 
d="M625 717l-7 -114l-217 4l-3 108zM349 713l-7 -114l-226 -8l-8 127zM650 88l-1 -88h-262l2 78q-96 -90 -196 -90q-83 0 -123 34.5t-40 112.5q0 136 176 136q61 0 117 -7q33 -4 66 -9q2 18 2 27q0 52 -76 52q-77 0 -250 -51l14 238q132 28 273 28q116 0 183 -53t63 -148
l-13 -264zM383 177q-50 7 -85 7q-60 0 -60 -40q0 -19 14 -31t34 -12q19 0 52 25t45 51z" />
    <glyph glyph-name="atilde" unicode="&#xe3;" horiz-adv-x="665" 
d="M647 744q-118 -152 -200 -152q-33 0 -82 29t-68 29q-35 0 -80 -53l-80 15q23 43 49 73q61 74 124 77q35 1 73.5 -18t50.5 -19q29 0 63 45zM650 88l-1 -88h-262l2 78q-96 -90 -196 -90q-83 0 -123 34.5t-40 112.5q0 136 176 136q61 0 117 -7q33 -4 66 -9q2 18 2 27
q0 52 -76 52q-77 0 -250 -51l14 238q132 28 273 28q116 0 183 -53t63 -148l-13 -264zM383 177q-50 7 -85 7q-60 0 -60 -40q0 -19 14 -31t34 -12q19 0 52 25t45 51z" />
    <glyph glyph-name="aring" unicode="&#xe5;" horiz-adv-x="665" 
d="M477 671q0 -47 -39 -71q-34 -20 -89 -20q-130 0 -130 91q0 57 26 82q30 30 103 30q75 0 104 -30q25 -25 25 -82zM395 674q0 28 -49 28q-42 0 -42 -30q0 -26 47 -26q44 0 44 28zM650 88l-1 -88h-262l2 78q-96 -90 -196 -90q-83 0 -123 34.5t-40 112.5q0 136 176 136
q61 0 117 -7q33 -4 66 -9q2 18 2 27q0 52 -76 52q-77 0 -250 -51l14 238q132 28 273 28q116 0 183 -53t63 -148l-13 -264zM383 177q-50 7 -85 7q-60 0 -60 -40q0 -19 14 -31t34 -12q19 0 52 25t45 51z" />
    <glyph glyph-name="ccedilla" unicode="&#xe7;" horiz-adv-x="672" 
d="M642 537l-21 -282l-218 -9q-20 57 -82 57q-47 0 -72 -36q-20 -30 -20 -73q0 -46 22 -77q24 -35 65 -35q81 0 93 88l197 -2l-5 -193l-108 -2l9 106q-61 -86 -186 -98l-18 -134h-154l56 143q-80 26 -126 102q-44 73 -44 172q0 117 40 190q52 96 163 96q80 0 130 -60
q37 -44 51 -113l-12 160h240z" />
    <glyph glyph-name="eacute" unicode="&#xe9;" horiz-adv-x="676" 
d="M568 730l-206 -123l-123 3l144 150zM623 158l-387 -1q13 -74 122 -74t259 43l-17 -95q-166 -51 -267 -51q-303 0 -303 256q0 324 302 324q136 0 217 -56q97 -67 97 -203q0 -64 -23 -143zM435 241q3 9 3 19q0 55 -100 55q-106 0 -106 -66q0 -8 2 -15z" />
    <glyph glyph-name="egrave" unicode="&#xe8;" horiz-adv-x="676" 
d="M451 610l-123 -13l-178 143l185 30zM623 158l-387 -1q13 -74 122 -74t259 43l-17 -95q-166 -51 -267 -51q-303 0 -303 256q0 324 302 324q136 0 217 -56q97 -67 97 -203q0 -64 -23 -143zM435 241q3 9 3 19q0 55 -100 55q-106 0 -106 -66q0 -8 2 -15z" />
    <glyph glyph-name="ecircumflex" unicode="&#xea;" horiz-adv-x="676" 
d="M558 597l-133 -3l-71 63l-80 -60h-105l138 173l136 3zM623 158l-387 -1q13 -74 122 -74t259 43l-17 -95q-166 -51 -267 -51q-303 0 -303 256q0 324 302 324q136 0 217 -56q97 -67 97 -203q0 -64 -23 -143zM435 241q3 9 3 19q0 55 -100 55q-106 0 -106 -66q0 -8 2 -15z
" />
    <glyph glyph-name="edieresis" unicode="&#xeb;" horiz-adv-x="676" 
d="M643 717l-7 -114l-217 4l-3 108zM324 713l-7 -114l-226 -8l-8 127zM623 158l-387 -1q13 -74 122 -74t259 43l-17 -95q-166 -51 -267 -51q-303 0 -303 256q0 324 302 324q136 0 217 -56q97 -67 97 -203q0 -64 -23 -143zM435 241q3 9 3 19q0 55 -100 55q-106 0 -106 -66
q0 -8 2 -15z" />
    <glyph glyph-name="iacute" unicode="&#xed;" horiz-adv-x="392" 
d="M438 749l-153 -140l-150 1l118 169zM382 89l-7 -89l-338 3l-4 86h75l-4 188l-77 -3l-7 257l294 3l-7 -442z" />
    <glyph glyph-name="igrave" unicode="&#xec;" horiz-adv-x="392" 
d="M295 610l-123 -13l-115 150l164 53zM382 89l-7 -89l-338 3l-4 86h75l-4 188l-77 -3l-7 257l294 3l-7 -442z" />
    <glyph glyph-name="icircumflex" unicode="&#xee;" horiz-adv-x="392" 
d="M424 597l-133 -3l-71 63l-80 -60h-105l138 173l136 3zM382 89l-7 -89l-338 3l-4 86h75l-4 188l-77 -3l-7 257l294 3l-7 -442z" />
    <glyph glyph-name="idieresis" unicode="&#xef;" horiz-adv-x="392" 
d="M400 737l-7 -134l-163 4l-3 128zM178 733l-7 -134l-173 -8l-8 147zM382 89l-7 -89l-338 3l-4 86h75l-4 188l-77 -3l-7 257l294 3l-7 -442z" />
    <glyph glyph-name="ntilde" unicode="&#xf1;" horiz-adv-x="700" 
d="M605 744q-118 -152 -200 -152q-33 0 -82 29t-68 29q-35 0 -80 -53l-80 15q23 43 49 73q61 74 124 77q35 1 73.5 -18t50.5 -19q29 0 63 45zM690 87l-1 -91l-260 2l9 239q2 59 -50 59q-53 0 -83 -40v-166l64 1v-95l-333 7l-3 87l81 -2l-5 182l-81 -1l-8 269h264l20 -183
q13 89 56 139q46 55 119 55q70 0 115 -59q41 -52 40 -117l-3 -285z" />
    <glyph glyph-name="oacute" unicode="&#xf3;" horiz-adv-x="664" 
d="M581 730l-206 -123l-123 3l144 150zM634 240q0 -133 -92 -202q-79 -60 -208 -60q-131 0 -210 58q-94 68 -94 204q0 164 62 238q70 85 240 85q175 0 244 -86q58 -73 58 -237zM439 183q0 55 -27 76t-85 21q-54 0 -75 -22.5t-21 -81.5q0 -55 30 -75q23 -15 77 -15
q51 0 74 19q27 23 27 78z" />
    <glyph glyph-name="ograve" unicode="&#xf2;" horiz-adv-x="664" 
d="M429 610l-123 -13l-178 143l185 30zM634 240q0 -133 -92 -202q-79 -60 -208 -60q-131 0 -210 58q-94 68 -94 204q0 164 62 238q70 85 240 85q175 0 244 -86q58 -73 58 -237zM439 183q0 55 -27 76t-85 21q-54 0 -75 -22.5t-21 -81.5q0 -55 30 -75q23 -15 77 -15
q51 0 74 19q27 23 27 78z" />
    <glyph glyph-name="ocircumflex" unicode="&#xf4;" horiz-adv-x="664" 
d="M558 597l-133 -3l-71 63l-80 -60h-105l138 173l136 3zM634 240q0 -133 -92 -202q-79 -60 -208 -60q-131 0 -210 58q-94 68 -94 204q0 164 62 238q70 85 240 85q175 0 244 -86q58 -73 58 -237zM439 183q0 55 -27 76t-85 21q-54 0 -75 -22.5t-21 -81.5q0 -55 30 -75
q23 -15 77 -15q51 0 74 19q27 23 27 78z" />
    <glyph glyph-name="odieresis" unicode="&#xf6;" horiz-adv-x="664" 
d="M597 717l-7 -114l-217 4l-3 108zM321 713l-7 -114l-226 -8l-8 127zM634 240q0 -133 -92 -202q-79 -60 -208 -60q-131 0 -210 58q-94 68 -94 204q0 164 62 238q70 85 240 85q175 0 244 -86q58 -73 58 -237zM439 183q0 55 -27 76t-85 21q-54 0 -75 -22.5t-21 -81.5
q0 -55 30 -75q23 -15 77 -15q51 0 74 19q27 23 27 78z" />
    <glyph glyph-name="otilde" unicode="&#xf5;" horiz-adv-x="664" 
d="M632 744q-118 -152 -200 -152q-33 0 -82 29t-68 29q-35 0 -80 -53l-80 15q23 43 49 73q61 74 124 77q35 1 73 -18t51 -19q29 0 63 45zM634 240q0 -133 -92 -202q-79 -60 -208 -60q-131 0 -210 58q-94 68 -94 204q0 164 62 238q70 85 240 85q175 0 244 -86q58 -73 58 -237
zM439 183q0 55 -27 76t-85 21q-54 0 -75 -22.5t-21 -81.5q0 -55 30 -75q23 -15 77 -15q51 0 74 19q27 23 27 78z" />
    <glyph glyph-name="uacute" unicode="&#xfa;" horiz-adv-x="754" 
d="M602 730l-206 -123l-123 3l144 150zM734 101l-2 -100h-273v86q-72 -96 -191 -96q-74 0 -117 47q-41 43 -44 112l-5 120l-82 -1l-5 266l290 4l-5 -350q-1 -101 61 -101q33 0 63 42.5t31 86.5l1 57l-77 -1l-8 264h291l-7 -443z" />
    <glyph glyph-name="ugrave" unicode="&#xf9;" horiz-adv-x="754" 
d="M451 610l-123 -13l-178 143l185 30zM734 101l-2 -100h-273v86q-72 -96 -191 -96q-74 0 -117 47q-41 43 -44 112l-5 120l-82 -1l-5 266l290 4l-5 -350q-1 -101 61 -101q33 0 63 42.5t31 86.5l1 57l-77 -1l-8 264h291l-7 -443z" />
    <glyph glyph-name="ucircumflex" unicode="&#xfb;" horiz-adv-x="754" 
d="M558 597l-133 -3l-71 63l-80 -60h-105l138 173l136 3zM734 101l-2 -100h-273v86q-72 -96 -191 -96q-74 0 -117 47q-41 43 -44 112l-5 120l-82 -1l-5 266l290 4l-5 -350q-1 -101 61 -101q33 0 63 42.5t31 86.5l1 57l-77 -1l-8 264h291l-7 -443z" />
    <glyph glyph-name="udieresis" unicode="&#xfc;" horiz-adv-x="754" 
d="M600 717l-7 -114l-217 4l-3 108zM324 713l-7 -114l-226 -8l-8 127zM734 101l-2 -100h-273v86q-72 -96 -191 -96q-74 0 -117 47q-41 43 -44 112l-5 120l-82 -1l-5 266l290 4l-5 -350q-1 -101 61 -101q33 0 63 42.5t31 86.5l1 57l-77 -1l-8 264h291l-7 -443z" />
    <glyph glyph-name="dagger" unicode="&#x2020;" 
d="M699 494l-240 -187l38 -278l-227 135l-245 -131l52 246l-170 220l281 10l129 238l91 -234z" />
    <glyph glyph-name="degree" unicode="&#xb0;" horiz-adv-x="428" 
d="M388 475q0 -62 -52 -95q-46 -28 -121 -28t-121 27q-54 32 -54 96q0 77 36 111q40 40 138 40q101 0 141 -40q33 -34 33 -111zM277 480q0 37 -66 37q-32 0 -44 -8.5t-12 -31.5q0 -35 63 -35q59 0 59 38z" />
    <glyph glyph-name="cent" unicode="&#xa2;" 
d="M699 494l-240 -187l38 -278l-227 135l-245 -131l52 246l-170 220l281 10l129 238l91 -234z" />
    <glyph glyph-name="sterling" unicode="&#xa3;" 
d="M699 494l-240 -187l38 -278l-227 135l-245 -131l52 246l-170 220l281 10l129 238l91 -234z" />
    <glyph glyph-name="section" unicode="&#xa7;" 
d="M699 494l-240 -187l38 -278l-227 135l-245 -131l52 246l-170 220l281 10l129 238l91 -234z" />
    <glyph glyph-name="bullet" unicode="&#x2022;" 
d="M531 431l-131 -132l16 -166l-147 87l-158 -84l25 172l-116 127l181 6l70 162l73 -160z" />
    <glyph glyph-name="paragraph" unicode="&#xb6;" horiz-adv-x="626" 
d="M596 538l-3 -247q-43 3 -164 8l-15 -193q19 6 38 19l134 -1l-2 -121q-77 -13 -85 -14q-41 -5 -94 -7l-6 -79h-95l1 81q-275 21 -275 236q0 137 64 220q73 95 218 101l1 89h139l-5 -90zM309 293q-71 -17 -71 -84q0 -48 11 -71q15 -31 57 -38z" />
    <glyph glyph-name="germandbls" unicode="&#xdf;" horiz-adv-x="832" 
d="M832 149q0 -67 -50.5 -106t-134.5 -39q-72 0 -112 25q-15 9 -41 40l-5 -62l-89 -4l3 138l147 3q6 -19 29 -33q26 -17 65 -17q25 0 47 11t22 25q0 26 -80 47l-98 24q-152 39 -152 179q0 11 2 39q5 94 -47 94q-44 0 -40 -95l14 -414l-290 4l-2 91l91 7l-28 371q-1 14 -1 28
q0 223 257 223q126 0 188 -78q49 -60 49 -150q0 -17 -4 -49.5t-4 -48.5q0 -46 19 -72t66 -39q179 -53 179 -142z" />
    <glyph glyph-name="registered" unicode="&#xae;" 
d="M699 494l-240 -187l38 -278l-227 135l-245 -131l52 246l-170 220l281 10l129 238l91 -234z" />
    <glyph glyph-name="copyright" unicode="&#xa9;" 
d="M699 494l-240 -187l38 -278l-227 135l-245 -131l52 246l-170 220l281 10l129 238l91 -234z" />
    <glyph glyph-name="trademark" unicode="&#x2122;" 
d="M699 494l-240 -187l38 -278l-227 135l-245 -131l52 246l-170 220l281 10l129 238l91 -234z" />
    <glyph glyph-name="acute" unicode="&#xb4;" horiz-adv-x="701" 
d="M578 730l-206 -123l-123 3l144 150z" />
    <glyph glyph-name="dieresis" unicode="&#xa8;" horiz-adv-x="665" 
d="M625 717l-7 -114l-217 4l-3 108zM349 713l-7 -114l-226 -8l-8 127z" />
    <glyph glyph-name="AE" unicode="&#xc6;" horiz-adv-x="1212" 
d="M1192 646l-13 -369h-176l-7 94l-256 -3v-90l140 2l-2 -100l-144 -6l2 -84l256 3l9 94l165 9v-193l-746 -6l-4 96h84l-1 71l-203 2l-65 -69l101 -4l2 -92l-327 -2l-2 103h97l217 269l-137 -2l13 275zM499 262l-6 155l-136 -154z" />
    <glyph glyph-name="Oslash" unicode="&#xd8;" horiz-adv-x="864" 
d="M910 557q-19 -15 -97 -77q36 -65 36 -150q0 -186 -153 -280q-117 -73 -273 -73q-111 0 -202 38l-88 -69l-53 65l58 50q-123 94 -123 275q0 190 153 271q100 52 250 52q162 0 279 -66l85 80zM605 248q0 33 -11 60l-254 -200q41 -23 90 -23q76 0 125.5 46t49.5 117z
M508 381q-35 12 -81 12q-78 0 -126 -45q-44 -42 -44 -103q0 -34 17 -67z" />
    <glyph glyph-name="plusminus" unicode="&#xb1;" horiz-adv-x="1810" 
d="M1700 110l-171 -28l-68 -149l-111 121l-140 -3l78 130l-34 140l164 -28l164 80l-18 -151q0 -4 136 -112zM1359 426l-201 -96q-3 0 9 -161l-167 84q-3 0 -205 -59l71 192l-102 186l202 -22l102 94l80 -156zM789 417l-146 -174q59 -260 56 -260q-2 0 -128.5 58t-128.5 60
q-1 1 -106 -67t-105 -63q0 8 28 263l-170 204l266 35l93 201l118 -208z" />
    <glyph glyph-name="yen" unicode="&#xa5;" 
d="M699 494l-240 -187l38 -278l-227 135l-245 -131l52 246l-170 220l281 10l129 238l91 -234z" />
    <glyph glyph-name="mu" unicode="&#xb5;" 
d="M699 494l-240 -187l38 -278l-227 135l-245 -131l52 246l-170 220l281 10l129 238l91 -234z" />
    <glyph glyph-name="mu" unicode="&#x3bc;" 
d="M699 494l-240 -187l38 -278l-227 135l-245 -131l52 246l-170 220l281 10l129 238l91 -234z" />
    <glyph glyph-name="ordfeminine" unicode="&#xaa;" 
d="M699 494l-240 -187l38 -278l-227 135l-245 -131l52 246l-170 220l281 10l129 238l91 -234z" />
    <glyph glyph-name="ordmasculine" unicode="&#xba;" 
d="M699 494l-240 -187l38 -278l-227 135l-245 -131l52 246l-170 220l281 10l129 238l91 -234z" />
    <glyph glyph-name="ae" unicode="&#xe6;" horiz-adv-x="1018" 
d="M966 158l-387 -1q12 -74 121 -74q110 0 259 43l-17 -95q-165 -51 -266 -51q-207 0 -273 121q-47 -114 -210 -114q-83 0 -123 34.5t-40 112.5q0 136 176 136q61 0 117 -7q33 -4 66 -9q2 18 2 27q0 52 -76 52q-77 0 -250 -51l14 238q132 28 273 28q75 0 136 -35
q71 47 187 47q135 0 217 -56q96 -67 96 -203q0 -64 -22 -143zM777 241q3 9 3 19q0 55 -99 55q-107 0 -107 -66q0 -8 2 -15zM383 176q-50 7 -85 7q-60 0 -60 -40q0 -19 14 -31t34 -12q19 0 52 25t45 51z" />
    <glyph glyph-name="oslash" unicode="&#xf8;" horiz-adv-x="664" 
d="M650 515q-9 -10 -55 -67q39 -71 39 -208q0 -133 -92 -202q-79 -60 -208 -60q-56 0 -104 12l-51 -64l-48 29l38 55q-139 62 -139 230q0 164 62 238q70 85 240 85q123 0 192 -41l40 58q89 -65 86 -65zM439 183q0 35 -11 56l-121 -152q13 -1 31 -1q51 0 74 19q27 23 27 78z
M355 278q-13 2 -28 2q-54 0 -75 -22.5t-21 -81.5q0 -37 13 -58z" />
    <glyph glyph-name="questiondown" unicode="&#xbf;" horiz-adv-x="583" 
d="M463 407l-227 2l-10 129l234 4zM563 -67q-110 -39 -250 -39q-132 0 -208 44q-85 50 -85 148q0 53 58 91l108 60q58 40 58 98q0 15 -3 31l221 -1q4 -17 4 -34q0 -57 -50 -101q-45 -39 -120 -60q-64 -18 -64 -41q0 -29 76 -29q102 0 247 59z" />
    <glyph glyph-name="exclamdown" unicode="&#xa1;" horiz-adv-x="309" 
d="M257 406l-227 2l-10 129l234 4zM289 -99l-264 10l12 416h204z" />
    <glyph glyph-name="logicalnot" unicode="&#xac;" horiz-adv-x="831" 
d="M811 494l-239 -187l38 -278l-228 135l-244 -131l52 246l-170 220l281 10l129 238l91 -234z" />
    <glyph glyph-name="florin" unicode="&#x192;" 
d="M699 494l-240 -187l38 -278l-227 135l-245 -131l52 246l-170 220l281 10l129 238l91 -234z" />
    <glyph glyph-name="guillemotleft" unicode="&#xab;" horiz-adv-x="465" 
d="M465 121l-144 -6l-93 198l63 191l144 -3l-90 -188zM239 126l-137 -9l-82 200l59 187l146 3l-67 -194z" />
    <glyph glyph-name="guillemotright" unicode="&#xbb;" horiz-adv-x="490" 
d="M470 313l-107 -196l-137 -11l97 207l-83 194l153 -3zM251 313l-107 -196l-144 4l120 192l-109 184l163 7z" />
    <glyph glyph-name="ellipsis" unicode="&#x2026;" horiz-adv-x="813" 
d="M793 0h-168l-21 147l178 8q13 -155 11 -155zM536 -3q-3 0 -208 -4l2 172l194 -3q14 -165 12 -165zM256 173q0 -177 -3 -177t-233 -4l2 184z" />
    <glyph glyph-name="nonbreakingspace" unicode="&#xa0;" 
d="M699 494l-240 -187l38 -278l-227 135l-245 -131l52 246l-170 220l281 10l129 238l91 -234z" />
    <glyph glyph-name="Agrave" unicode="&#xc0;" horiz-adv-x="885" 
d="M535 684l-152 -7l-178 143l214 24zM885 -1l-437 -2l-4 96h84l-22 71l-209 2l-37 -69l100 -4l3 -92l-361 -2l-2 103h77l146 269l-122 -2l-15 275l515 -9l212 -540h70zM480 262l-60 156l-87 -156h147z" />
    <glyph glyph-name="Atilde" unicode="&#xc3;" horiz-adv-x="885" 
d="M789 862q-126 -182 -215 -182q-34 0 -87 34.5t-73 34.5q-38 0 -86 -63l-85 18q24 51 52 88q65 89 133 92q37 2 78.5 -21t54.5 -23q31 0 68 53zM885 -1l-437 -2l-4 96h84l-22 71l-209 2l-37 -69l100 -4l3 -92l-361 -2l-2 103h77l146 269l-122 -2l-15 275l515 -9l212 -540
h70zM480 262l-60 156l-87 -156h147z" />
    <glyph glyph-name="Otilde" unicode="&#xd5;" horiz-adv-x="864" 
d="M771 862q-126 -182 -215 -182q-34 0 -87 34.5t-73 34.5q-38 0 -86 -63l-85 18q24 51 52 88q65 89 133 92q37 2 78.5 -21t54.5 -23q31 0 68 53zM849 330q0 -186 -153 -280q-117 -73 -273 -73t-264 70q-144 93 -144 289q0 190 153 271q100 52 250 52q154 0 269 -61
q162 -86 162 -268zM605 248q0 70 -46 107.5t-132 37.5q-78 0 -126 -45q-44 -42 -44 -103q0 -62 49.5 -111t123.5 -49q76 0 125.5 46t49.5 117z" />
    <glyph glyph-name="OE" unicode="&#x152;" horiz-adv-x="1328" 
d="M1278 646l-13 -369h-176l-7 94l-256 -3v-90l140 2l-2 -100l-144 -6l2 -84l256 3l9 94l165 9v-193l-684 -5q-68 -21 -145 -21q-156 0 -264 70q-144 93 -144 289q0 190 153 271q100 52 250 52q72 0 137 -16zM605 248q0 70 -46 107.5t-132 37.5q-78 0 -126 -45
q-44 -42 -44 -103q0 -62 49.5 -111t123.5 -49q76 0 125.5 46t49.5 117z" />
    <glyph glyph-name="oe" unicode="&#x153;" horiz-adv-x="1084" 
d="M1031 158l-387 -1q13 -74 122 -74t259 43l-17 -95q-166 -51 -267 -51q-134 0 -209 51q-78 -53 -198 -53q-131 0 -210 58q-94 68 -94 204q0 164 62 238q70 85 240 85q142 0 213 -55q72 52 195 52q136 0 217 -56q97 -67 97 -203q0 -64 -23 -143zM843 241q3 9 3 19
q0 55 -100 55q-106 0 -106 -66q0 -8 2 -15zM439 183q0 55 -27 76t-85 21q-54 0 -75 -22.5t-21 -81.5q0 -55 30 -75q23 -15 77 -15q51 0 74 19q27 23 27 78z" />
    <glyph glyph-name="endash" unicode="&#x2013;" horiz-adv-x="480" 
d="M460 359l-5 -134h-432l-3 125z" />
    <glyph glyph-name="emdash" unicode="&#x2014;" horiz-adv-x="647" 
d="M627 362l-5 -137l-599 3l-3 128z" />
    <glyph glyph-name="quotedblleft" unicode="&#x201c;" horiz-adv-x="480" 
d="M460 328l-196 3l12 291l111 -2l-6 -109l74 -5zM216 505l-9 -176l-187 -1l15 304l104 -4l-8 -123h85z" />
    <glyph glyph-name="quotedblright" unicode="&#x201d;" horiz-adv-x="480" 
d="M460 631l-15 -304l-104 4l8 123h-85l9 176zM216 628l-12 -291l-111 2l6 109l-74 5l-5 178z" />
    <glyph glyph-name="quoteleft" unicode="&#x2018;" horiz-adv-x="258" 
d="M238 522l-1 -172l-217 -9l19 306l106 6l13 -132z" />
    <glyph glyph-name="quoteright" unicode="&#x2019;" horiz-adv-x="258" 
d="M238 644l-19 -306l-106 -6l-13 132l-80 -1l1 172z" />
    <glyph glyph-name="divide" unicode="&#xf7;" 
d="M699 494l-240 -187l38 -278l-227 135l-245 -131l52 246l-170 220l281 10l129 238l91 -234z" />
    <glyph glyph-name="ydieresis" unicode="&#xff;" 
d="M699 494l-240 -187l38 -278l-227 135l-245 -131l52 246l-170 220l281 10l129 238l91 -234z" />
    <glyph glyph-name="Ydieresis" unicode="&#x178;" 
d="M699 494l-240 -187l38 -278l-227 135l-245 -131l52 246l-170 220l281 10l129 238l91 -234z" />
    <glyph glyph-name="currency" unicode="&#xa4;" horiz-adv-x="657" 
d="M627 602l-3 -250q-181 24 -238 18q-28 -3 -52 -16q-28 -14 -35 -36l286 3l-8 -77l-303 2q-1 -8 -1 -14l1 -5l301 -1l-7 -68l-283 6q24 -66 88 -66q68 0 110 31l134 -1l-2 -118q-128 -23 -249 -23q-94 0 -164 33q-96 46 -133 148l-54 1l-3 59h42q-2 10 -3 20h-42l-4 67h43
q3 136 91 217q82 74 200 73z" />
    <glyph glyph-name="guilsinglleft" unicode="&#x2039;" horiz-adv-x="239" 
d="M239 126l-137 3l-82 188l59 187l149 -11l-81 -169z" />
    <glyph glyph-name="guilsinglright" unicode="&#x203a;" horiz-adv-x="257" 
d="M237 313l-93 -198l-144 6l120 192l-90 188l144 3z" />
    <glyph glyph-name="daggerdbl" unicode="&#x2021;" 
d="M699 494l-240 -187l38 -278l-227 135l-245 -131l52 246l-170 220l281 10l129 238l91 -234z" />
    <glyph glyph-name="periodcentered" unicode="&#xb7;" 
d="M699 494l-240 -187l38 -278l-227 135l-245 -131l52 246l-170 220l281 10l129 238l91 -234z" />
    <glyph glyph-name="periodcentered" unicode="&#x2219;" 
d="M699 494l-240 -187l38 -278l-227 135l-245 -131l52 246l-170 220l281 10l129 238l91 -234z" />
    <glyph glyph-name="quotesinglbase" unicode="&#x201a;" horiz-adv-x="236" 
d="M216 174l-12 -291l-111 2l6 109l-74 5l-5 178z" />
    <glyph glyph-name="quotedblbase" unicode="&#x201e;" horiz-adv-x="480" 
d="M460 177l-15 -304l-104 4l8 123h-85l9 176zM216 174l-12 -291l-111 2l6 109l-74 5l-5 178z" />
    <glyph glyph-name="perthousand" unicode="&#x2030;" horiz-adv-x="1236" 
d="M1216 161q0 -94 -73 -141q-57 -36 -135 -36q-143 0 -194 89q-27 -46 -85 -70q-47 -19 -102 -19q-82 0 -138 34q-77 46 -77 144q0 10 1 19l-170 -181h-119l206 229q-38 -10 -77 -10q-93 0 -157 39q-86 52 -86 163q0 108 92 155q60 31 147 31q88 0 151 -35q88 -48 88 -152
v-15l192 214l147 1l-287 -304q39 10 84 10q138 0 189 -82q49 82 192 82q77 0 133 -31q78 -42 78 -134zM1088 139q0 42 -80 42q-74 0 -74 -43q0 -18 20.5 -32.5t54.5 -14.5q36 0 57.5 13.5t21.5 34.5zM708 139q0 42 -80 42q-75 0 -75 -43q0 -18 21 -32.5t55 -14.5
q35 0 57 13.5t22 34.5zM339 367q0 43 -82 43q-77 0 -77 -43q0 -19 22 -33.5t57 -14.5q36 0 58 13.5t22 34.5z" />
    <glyph glyph-name="Acircumflex" unicode="&#xc2;" horiz-adv-x="885" 
d="M581 684l-170 -3l-34 63l-59 -57l-139 -3l126 173l201 3zM885 -1l-437 -2l-4 96h84l-22 71l-209 2l-37 -69l100 -4l3 -92l-361 -2l-2 103h77l146 269l-122 -2l-15 275l515 -9l212 -540h70zM480 262l-60 156l-87 -156h147z" />
    <glyph glyph-name="Ecircumflex" unicode="&#xca;" horiz-adv-x="852" 
d="M624 684l-170 -3l-34 63l-59 -57l-139 -3l126 173l201 3zM802 646l-13 -369h-176l-6 94l-257 -3v-90l140 2l-2 -100l-144 -6l2 -84l257 3l8 94l166 9v-193l-743 -5l-2 99h93l-13 271h-83l-9 275z" />
    <glyph glyph-name="Aacute" unicode="&#xc1;" horiz-adv-x="885" 
d="M712 800l-206 -123l-146 3l144 150zM885 -1l-437 -2l-4 96h84l-22 71l-209 2l-37 -69l100 -4l3 -92l-361 -2l-2 103h77l146 269l-122 -2l-15 275l515 -9l212 -540h70zM480 262l-60 156l-87 -156h147z" />
    <glyph glyph-name="Edieresis" unicode="&#xcb;" horiz-adv-x="852" 
d="M735 837l-8 -135l-257 5l-4 128zM395 832l-8 -135l-267 -9l-10 151zM802 646l-13 -369h-176l-6 94l-257 -3v-90l140 2l-2 -100l-144 -6l2 -84l257 3l8 94l166 9v-193l-743 -5l-2 99h93l-13 271h-83l-9 275z" />
    <glyph glyph-name="Egrave" unicode="&#xc8;" horiz-adv-x="852" 
d="M535 684l-152 -7l-178 143l214 24zM802 646l-13 -369h-176l-6 94l-257 -3v-90l140 2l-2 -100l-144 -6l2 -84l257 3l8 94l166 9v-193l-743 -5l-2 99h93l-13 271h-83l-9 275z" />
    <glyph glyph-name="Iacute" unicode="&#xcd;" horiz-adv-x="520" 
d="M519 800l-206 -123l-146 3l144 150zM500 646l-21 -276h-109l-2 -275l67 -4l9 -90h-382l-2 96l88 -2l-6 277h-107l-15 270z" />
    <glyph glyph-name="Icircumflex" unicode="&#xce;" horiz-adv-x="520" 
d="M473 684l-170 -3l-34 63l-59 -57l-139 -3l126 173l201 3zM500 646l-21 -276h-109l-2 -275l67 -4l9 -90h-382l-2 96l88 -2l-6 277h-107l-15 270z" />
    <glyph glyph-name="Idieresis" unicode="&#xcf;" horiz-adv-x="520" 
d="M534 837l-8 -135l-192 5l-4 128zM259 832l-8 -135l-223 -9l-10 151zM500 646l-21 -276h-109l-2 -275l67 -4l9 -90h-382l-2 96l88 -2l-6 277h-107l-15 270z" />
    <glyph glyph-name="Igrave" unicode="&#xcc;" horiz-adv-x="520" 
d="M368 684l-152 -7l-178 143l214 24zM500 646l-21 -276h-109l-2 -275l67 -4l9 -90h-382l-2 96l88 -2l-6 277h-107l-15 270z" />
    <glyph glyph-name="Oacute" unicode="&#xd3;" horiz-adv-x="864" 
d="M686 814l-206 -123l-146 3l144 150zM849 330q0 -186 -153 -280q-117 -73 -273 -73t-264 70q-144 93 -144 289q0 190 153 271q100 52 250 52q154 0 269 -61q162 -86 162 -268zM605 248q0 70 -46 107.5t-132 37.5q-78 0 -126 -45q-44 -42 -44 -103q0 -62 49.5 -111
t123.5 -49q76 0 125.5 46t49.5 117z" />
    <glyph glyph-name="Ocircumflex" unicode="&#xd4;" horiz-adv-x="864" 
d="M638 684l-170 -3l-34 63l-59 -57l-139 -3l126 173l201 3zM849 330q0 -186 -153 -280q-117 -73 -273 -73t-264 70q-144 93 -144 289q0 190 153 271q100 52 250 52q154 0 269 -61q162 -86 162 -268zM605 248q0 70 -46 107.5t-132 37.5q-78 0 -126 -45q-44 -42 -44 -103
q0 -62 49.5 -111t123.5 -49q76 0 125.5 46t49.5 117z" />
    <glyph glyph-name="Ograve" unicode="&#xd2;" horiz-adv-x="864" 
d="M535 691l-165 6l-165 130l214 24zM849 330q0 -186 -153 -280q-117 -73 -273 -73t-264 70q-144 93 -144 289q0 190 153 271q100 52 250 52q154 0 269 -61q162 -86 162 -268zM605 248q0 70 -46 107.5t-132 37.5q-78 0 -126 -45q-44 -42 -44 -103q0 -62 49.5 -111t123.5 -49
q76 0 125.5 46t49.5 117z" />
    <glyph glyph-name="Uacute" unicode="&#xda;" horiz-adv-x="860" 
d="M689 809l-206 -123l-146 3l144 150zM840 647l-7 -276l-63 1l-20 -180q-10 -84 -39 -123q-49 -66 -166 -67l-257 -4q-181 -3 -196 196l-12 177h-54l-6 271l378 2l-2 -274l-81 -2v-200q0 -66 62 -66h107q41 0 51 26q3 7 4 49l8 191h-76l-2 276z" />
    <glyph glyph-name="Ucircumflex" unicode="&#xdb;" horiz-adv-x="860" 
d="M661 684l-170 -3l-34 63l-59 -57l-139 -3l126 173l201 3zM840 647l-7 -276l-63 1l-20 -180q-10 -84 -39 -123q-49 -66 -166 -67l-257 -4q-181 -3 -196 196l-12 177h-54l-6 271l378 2l-2 -274l-81 -2v-200q0 -66 62 -66h107q41 0 51 26q3 7 4 49l8 191h-76l-2 276z" />
    <glyph glyph-name="Ugrave" unicode="&#xd9;" horiz-adv-x="860" 
d="M536 696l-152 -7l-178 143l214 24zM840 647l-7 -276l-63 1l-20 -180q-10 -84 -39 -123q-49 -66 -166 -67l-257 -4q-181 -3 -196 196l-12 177h-54l-6 271l378 2l-2 -274l-81 -2v-200q0 -66 62 -66h107q41 0 51 26q3 7 4 49l8 191h-76l-2 276z" />
    <glyph glyph-name="circumflex" unicode="&#x2c6;" horiz-adv-x="676" 
d="M558 597l-133 -3l-71 63l-80 -60h-105l138 173l136 3z" />
    <glyph glyph-name="tilde" unicode="&#x2dc;" horiz-adv-x="700" 
d="M605 744q-118 -152 -200 -152q-33 0 -82 29t-68 29q-35 0 -80 -53l-80 15q23 43 49 73q61 74 124 77q35 1 73 -18t51 -19q29 0 63 45z" />
    <glyph glyph-name="macron" unicode="&#xaf;" 
d="M699 494l-240 -187l38 -278l-227 135l-245 -131l52 246l-170 220l281 10l129 238l91 -234z" />
    <glyph glyph-name="macron" unicode="&#x2c9;" 
d="M699 494l-240 -187l38 -278l-227 135l-245 -131l52 246l-170 220l281 10l129 238l91 -234z" />
    <glyph glyph-name="cedilla" unicode="&#xb8;" 
d="M699 494l-240 -187l38 -278l-227 135l-245 -131l52 246l-170 220l281 10l129 238l91 -234z" />
    <glyph glyph-name="Scaron" unicode="&#x160;" 
d="M699 494l-240 -187l38 -278l-227 135l-245 -131l52 246l-170 220l281 10l129 238l91 -234z" />
    <glyph glyph-name="scaron" unicode="&#x161;" 
d="M699 494l-240 -187l38 -278l-227 135l-245 -131l52 246l-170 220l281 10l129 238l91 -234z" />
    <glyph glyph-name="brokenbar" unicode="&#xa6;" 
d="M699 494l-240 -187l38 -278l-227 135l-245 -131l52 246l-170 220l281 10l129 238l91 -234z" />
    <glyph glyph-name="Eth" unicode="&#xd0;" 
d="M699 494l-240 -187l38 -278l-227 135l-245 -131l52 246l-170 220l281 10l129 238l91 -234z" />
    <glyph glyph-name="eth" unicode="&#xf0;" 
d="M699 494l-240 -187l38 -278l-227 135l-245 -131l52 246l-170 220l281 10l129 238l91 -234z" />
    <glyph glyph-name="Yacute" unicode="&#xdd;" 
d="M699 494l-240 -187l38 -278l-227 135l-245 -131l52 246l-170 220l281 10l129 238l91 -234z" />
    <glyph glyph-name="yacute" unicode="&#xfd;" 
d="M699 494l-240 -187l38 -278l-227 135l-245 -131l52 246l-170 220l281 10l129 238l91 -234z" />
    <glyph glyph-name="Thorn" unicode="&#xde;" 
d="M699 494l-240 -187l38 -278l-227 135l-245 -131l52 246l-170 220l281 10l129 238l91 -234z" />
    <glyph glyph-name="thorn" unicode="&#xfe;" 
d="M699 494l-240 -187l38 -278l-227 135l-245 -131l52 246l-170 220l281 10l129 238l91 -234z" />
    <glyph glyph-name="minus" unicode="&#xad;" horiz-adv-x="480" 
d="M460 359l-5 -134h-432l-3 125z" />
    <glyph glyph-name="minus" unicode="&#x2212;" horiz-adv-x="480" 
d="M460 359l-5 -134h-432l-3 125z" />
    <glyph glyph-name="multiply" unicode="&#xd7;" 
d="M699 494l-240 -187l38 -278l-227 135l-245 -131l52 246l-170 220l281 10l129 238l91 -234z" />
    <glyph glyph-name="onesuperior" unicode="&#xb9;" 
d="M699 494l-240 -187l38 -278l-227 135l-245 -131l52 246l-170 220l281 10l129 238l91 -234z" />
    <glyph glyph-name="twosuperior" unicode="&#xb2;" 
d="M699 494l-240 -187l38 -278l-227 135l-245 -131l52 246l-170 220l281 10l129 238l91 -234z" />
    <glyph glyph-name="threesuperior" unicode="&#xb3;" 
d="M699 494l-240 -187l38 -278l-227 135l-245 -131l52 246l-170 220l281 10l129 238l91 -234z" />
    <glyph glyph-name="onehalf" unicode="&#xbd;" 
d="M699 494l-240 -187l38 -278l-227 135l-245 -131l52 246l-170 220l281 10l129 238l91 -234z" />
    <glyph glyph-name="onequarter" unicode="&#xbc;" 
d="M699 494l-240 -187l38 -278l-227 135l-245 -131l52 246l-170 220l281 10l129 238l91 -234z" />
    <glyph glyph-name="threequarters" unicode="&#xbe;" 
d="M699 494l-240 -187l38 -278l-227 135l-245 -131l52 246l-170 220l281 10l129 238l91 -234z" />
    <glyph glyph-name=".null" horiz-adv-x="-32767" 
 />
    <glyph glyph-name="Lslash" unicode="&#x141;" 
d="M699 494l-240 -187l38 -278l-227 135l-245 -131l52 246l-170 220l281 10l129 238l91 -234z" />
    <glyph glyph-name="lslash" unicode="&#x142;" 
d="M699 494l-240 -187l38 -278l-227 135l-245 -131l52 246l-170 220l281 10l129 238l91 -234z" />
    <glyph glyph-name="HT" 
d="M699 494l-240 -187l38 -278l-227 135l-245 -131l52 246l-170 220l281 10l129 238l91 -234z" />
    <glyph glyph-name="LF" 
d="M699 494l-240 -187l38 -278l-227 135l-245 -131l52 246l-170 220l281 10l129 238l91 -234z" />
    <glyph glyph-name="nonmarkingreturn" 
d="M699 494l-240 -187l38 -278l-227 135l-245 -131l52 246l-170 220l281 10l129 238l91 -234z" />
    <glyph glyph-name="Zcaron" unicode="&#x17d;" 
d="M699 494l-240 -187l38 -278l-227 135l-245 -131l52 246l-170 220l281 10l129 238l91 -234z" />
    <glyph glyph-name="zcaron" unicode="&#x17e;" 
d="M699 494l-240 -187l38 -278l-227 135l-245 -131l52 246l-170 220l281 10l129 238l91 -234z" />
    <glyph glyph-name="DLE" 
d="M699 494l-240 -187l38 -278l-227 135l-245 -131l52 246l-170 220l281 10l129 238l91 -234z" />
    <glyph glyph-name="DC1" 
d="M699 494l-240 -187l38 -278l-227 135l-245 -131l52 246l-170 220l281 10l129 238l91 -234z" />
    <glyph glyph-name="DC2" 
d="M699 494l-240 -187l38 -278l-227 135l-245 -131l52 246l-170 220l281 10l129 238l91 -234z" />
    <glyph glyph-name="DC3" 
d="M699 494l-240 -187l38 -278l-227 135l-245 -131l52 246l-170 220l281 10l129 238l91 -234z" />
    <glyph glyph-name="DC4" 
d="M699 494l-240 -187l38 -278l-227 135l-245 -131l52 246l-170 220l281 10l129 238l91 -234z" />
    <glyph glyph-name="RS" 
d="M699 494l-240 -187l38 -278l-227 135l-245 -131l52 246l-170 220l281 10l129 238l91 -234z" />
    <glyph glyph-name="US" 
d="M699 494l-240 -187l38 -278l-227 135l-245 -131l52 246l-170 220l281 10l129 238l91 -234z" />
    <glyph glyph-name="DEL" 
d="M699 494l-240 -187l38 -278l-227 135l-245 -131l52 246l-170 220l281 10l129 238l91 -234z" />
    <glyph glyph-name="notequal" unicode="&#x2260;" 
d="M699 494l-240 -187l38 -278l-227 135l-245 -131l52 246l-170 220l281 10l129 238l91 -234z" />
    <glyph glyph-name="infinity" unicode="&#x221e;" 
d="M699 494l-240 -187l38 -278l-227 135l-245 -131l52 246l-170 220l281 10l129 238l91 -234z" />
    <glyph glyph-name="lessequal" unicode="&#x2264;" horiz-adv-x="574" 
d="M524 70l-187 99l9 -222l-356 7v732l362 3l-6 -213l169 93zM429 212l-3 138l-121 -63z" />
    <glyph glyph-name="greaterequal" unicode="&#x2265;" 
d="M699 494l-240 -187l38 -278l-227 135l-245 -131l52 246l-170 220l281 10l129 238l91 -234z" />
    <glyph glyph-name="partialdiff" unicode="&#x2202;" 
d="M699 494l-240 -187l38 -278l-227 135l-245 -131l52 246l-170 220l281 10l129 238l91 -234z" />
    <glyph glyph-name="summation" unicode="&#x2211;" 
d="M699 494l-240 -187l38 -278l-227 135l-245 -131l52 246l-170 220l281 10l129 238l91 -234z" />
    <glyph glyph-name="product" unicode="&#x220f;" 
d="M699 494l-240 -187l38 -278l-227 135l-245 -131l52 246l-170 220l281 10l129 238l91 -234z" />
    <glyph glyph-name="pi" unicode="&#x3c0;" 
d="M699 494l-240 -187l38 -278l-227 135l-245 -131l52 246l-170 220l281 10l129 238l91 -234z" />
    <glyph glyph-name="integral" unicode="&#x222b;" 
d="M699 494l-240 -187l38 -278l-227 135l-245 -131l52 246l-170 220l281 10l129 238l91 -234z" />
    <glyph glyph-name="Omega" unicode="&#x3a9;" 
d="M699 494l-240 -187l38 -278l-227 135l-245 -131l52 246l-170 220l281 10l129 238l91 -234z" />
    <glyph glyph-name="Omega" unicode="&#x2126;" 
d="M699 494l-240 -187l38 -278l-227 135l-245 -131l52 246l-170 220l281 10l129 238l91 -234z" />
    <glyph glyph-name="radical" unicode="&#x221a;" 
d="M699 494l-240 -187l38 -278l-227 135l-245 -131l52 246l-170 220l281 10l129 238l91 -234z" />
    <glyph glyph-name="approxequal" unicode="&#x2248;" 
d="M699 494l-240 -187l38 -278l-227 135l-245 -131l52 246l-170 220l281 10l129 238l91 -234z" />
    <glyph glyph-name="approxequal" unicode="&#x22f2;" 
d="M699 494l-240 -187l38 -278l-227 135l-245 -131l52 246l-170 220l281 10l129 238l91 -234z" />
    <glyph glyph-name="Delta" unicode="&#x394;" 
d="M699 494l-240 -187l38 -278l-227 135l-245 -131l52 246l-170 220l281 10l129 238l91 -234z" />
    <glyph glyph-name="Delta" unicode="&#x2206;" 
d="M699 494l-240 -187l38 -278l-227 135l-245 -131l52 246l-170 220l281 10l129 238l91 -234z" />
    <glyph glyph-name="lozenge" unicode="&#x25ca;" 
d="M699 494l-240 -187l38 -278l-227 135l-245 -131l52 246l-170 220l281 10l129 238l91 -234z" />
    <glyph glyph-name="fraction" unicode="&#x2044;" horiz-adv-x="479" 
d="M459 653l-229 -650l-210 -4l190 645z" />
    <glyph glyph-name="fi" unicode="&#xf001;" horiz-adv-x="838" 
d="M761 713l-7 -114l-226 -8l-8 127zM818 89l-6 -89l-339 3l-3 86h74l-9 212l-201 -8l8 -204l79 2v-94l-366 1l-4 90l80 4l-1 194l-83 -3l-7 230l76 -5q-2 24 -2 45q0 90 44 139t121 49q55 0 108 -10q36 -8 72 -17l-21 -139q-16 3 -30 3q-86 0 -77 -80l422 14l-9 -420z" />
    <glyph glyph-name="fl" unicode="&#xf002;" horiz-adv-x="878" 
d="M858 89l-12 -90h-351l-2 90l90 -1l1 359l-92 -6l-3 276h296l-6 -629zM459 714l-21 -139q-16 3 -30 3q-86 0 -77 -80l111 -9l-16 -197l-89 -8l5 -195l79 2v-94l-366 1l-4 90l80 4v183l-83 -3l-8 241l76 -5q-2 24 -2 45q0 90 44 139t121 49q55 0 108 -10q36 -8 72 -17z" />
    <glyph glyph-name="apple" unicode="&#xf000;" horiz-adv-x="1810" 
d="M1730 456l-192 -199l38 -278l-227 135l-245 -131l52 246l-147 193l212 35l130 238l91 -234zM1084 582l-143 -194l83 -175l-211 53l-185 -150l16 213l-159 123l176 43l91 200l101 -146zM592 63l-180 13l-100 -122l-47 132l-185 62l167 81l15 158l121 -101l178 40l-69 -132
z" />
    <glyph glyph-name="dotlessi" unicode="&#x131;" horiz-adv-x="392" 
d="M382 89l-7 -89l-338 3l-4 86h75l-4 188l-77 -3l-7 257l294 3l-7 -442z" />
    <glyph glyph-name="breve" unicode="&#x2d8;" 
d="M699 494l-240 -187l38 -278l-227 135l-245 -131l52 246l-170 220l281 10l129 238l91 -234z" />
    <glyph glyph-name="dotaccent" unicode="&#x2d9;" horiz-adv-x="392" 
d="M324 713l-7 -114l-226 -8l-8 127z" />
    <glyph glyph-name="ring" unicode="&#x2da;" horiz-adv-x="665" 
d="M477 671q0 -47 -39 -71q-34 -20 -89 -20q-130 0 -130 91q0 57 26 82q30 30 103 30q75 0 104 -30q25 -25 25 -82zM395 674q0 28 -49 28q-42 0 -42 -30q0 -26 47 -26q44 0 44 28z" />
    <glyph glyph-name="hungarumlaut" unicode="&#x2dd;" 
d="M699 494l-240 -187l38 -278l-227 135l-245 -131l52 246l-170 220l281 10l129 238l91 -234z" />
    <glyph glyph-name="ogonek" unicode="&#x2db;" 
d="M699 494l-240 -187l38 -278l-227 135l-245 -131l52 246l-170 220l281 10l129 238l91 -234z" />
    <glyph glyph-name="caron" unicode="&#x2c7;" 
d="M699 494l-240 -187l38 -278l-227 135l-245 -131l52 246l-170 220l281 10l129 238l91 -234z" />
    </font>
</defs>
</svg>
