<?xml version="1.0" encoding="UTF-8"?>
<svg xmlns="http://www.w3.org/2000/svg" viewBox="0 0 24 24">
    <path d="M 9 5 C 5.134 5 2 8.134 2 12 C 2 15.866 5.134 19 9 19 C 9.598 19 10.16475 18.92225 10.71875 18.78125 C 9.93275 18.29625 9.23525 17.68375 8.65625 16.96875 C 6.05425 16.79275 4 14.646 4 12 C 4 9.239 6.239 7 9 7 C 11.761 7 14 9.239 14 12 C 14 13.252 13.51 14.373 12.75 15.25 C 13.326 15.663 14.015 15.91975 14.75 15.96875 C 15.53 14.83975 16 13.476 16 12 C 16 8.134 12.866 5 9 5 z M 15 5 C 14.331 5 13.6755 5.10625 13.0625 5.28125 C 13.8095 5.75425 14.4985 6.328 15.0625 7 C 17.7995 7.028 20 9.256 20 12 C 20 14.761 17.761 17 15 17 C 12.239 17 10 14.761 10 12 C 10 10.76 10.4405 9.623 11.1875 8.75 C 10.6155 8.35 9.94475 8.1085 9.21875 8.0625 C 8.45075 9.1835 8 10.537 8 12 C 8 15.866 11.134 19 15 19 C 18.866 19 22 15.866 22 12 C 22 8.134 18.866 5 15 5 z"/>
</svg>