<?xml version="1.0" encoding="UTF-8"?>
<!-- Generator: Adobe Illustrator 21.1.0, SVG Export Plug-In . SVG Version: 6.00 Build 0)  -->
<svg version="1.1" xmlns="http://www.w3.org/2000/svg" xmlns:xlink="http://www.w3.org/1999/xlink" x="0px" y="0px" viewBox="0 0 256 256" enable-background="new 0 0 256 256" xml:space="preserve">
<g id="Top" display="none">
	<g display="inline">
		<path d="M130,237.3c59.4,0,107.5-48.1,107.5-107.5S189.4,22.3,130,22.3S22.5,70.4,22.5,129.8S70.6,237.3,130,237.3z M130.1,61.5    l59.3,68.6h-44.5v65.5h-29.6V130H70.8L130.1,61.5z"/>
	</g>
</g>
<g id="icalendar">
	<g>
		<path d="M211.3,36.4V22.8c0-13.4-8.4-21.4-22.6-21.4c-14.2,0-22.6,8-22.6,21.4v13.6h-15.3V22.8c0-13.4-8.4-21.4-22.6-21.4    c-14.2,0-22.6,8-22.6,21.4v13.6H90.3V22.8c0-13.4-8.4-21.4-22.6-21.4c-14.2,0-22.6,8-22.6,21.4v13.6H19.1v217.9H237V36.4H211.3z     M178.2,22.8c0-6.6,3-9.3,10.5-9.3c7.5,0,10.5,2.7,10.5,9.3v36.4c0,6.6-3,9.3-10.5,9.3c-7.5,0-10.5-2.7-10.5-9.3V22.8z     M117.7,22.8c0-6.6,3-9.3,10.5-9.3c7.5,0,10.5,2.7,10.5,9.3v36.4c0,6.6-3,9.3-10.5,9.3c-7.5,0-10.5-2.7-10.5-9.3V22.8z M57.2,22.8    c0-6.6,3-9.3,10.5-9.3c7.5,0,10.5,2.7,10.5,9.3v36.4c0,6.6-3,9.3-10.5,9.3c-7.5,0-10.5-2.7-10.5-9.3V22.8z M218.8,236.1H37.3V84.8    h181.5V236.1z"/>
		<path d="M81.8,172.4l26,0c4.3,0,7.9,3.6,7.9,7.9v26c0,4.3,3.6,7.9,7.9,7.9l8.8,0c4.3,0,7.9-3.6,7.9-7.9v-26c0-4.3,3.6-7.9,7.9-7.9    h26c4.3,0,7.9-3.6,7.9-7.9v-8.8c0-4.3-3.6-7.9-7.9-7.9l-26,0c-4.3,0-7.9-3.6-7.9-7.9v-26c0-4.3-3.6-7.9-7.9-7.9h-8.8    c-4.3,0-7.9,3.6-7.9,7.9v26c0,4.3-3.6,7.9-7.9,7.9l-26,0c-4.3,0-7.9,3.6-7.9,7.9v8.8C73.9,168.9,77.4,172.4,81.8,172.4z"/>
	</g>
</g>
</svg>